<svg width="28" height="35" viewBox="0 0 28 35" fill="none" xmlns="http://www.w3.org/2000/svg">
<path fill-rule="evenodd" clip-rule="evenodd" d="M3.49337 12.4472C3.70632 12.2108 4.00445 12.0686 4.32219 12.0519C4.63993 12.0353 4.95128 12.1455 5.18777 12.3584L9.18857 15.9584C9.41784 16.1731 9.55374 16.4693 9.56708 16.7831C9.58042 17.097 9.47015 17.4036 9.25994 17.6371C9.04973 17.8705 8.75634 18.0122 8.4428 18.0318C8.12925 18.0513 7.82054 17.9471 7.58297 17.7416L3.58217 14.1416C3.34576 13.9286 3.2036 13.6305 3.18695 13.3127C3.1703 12.995 3.28052 12.6837 3.49337 12.4472Z" fill="black"/>
<path fill-rule="evenodd" clip-rule="evenodd" d="M9.27737 8.84719C9.49023 9.08368 9.60045 9.39503 9.58379 9.71277C9.56714 10.0305 9.42498 10.3286 9.18857 10.5416L5.18777 14.1416C5.07131 14.2507 4.93426 14.3355 4.78464 14.391C4.63502 14.4464 4.47583 14.4715 4.31639 14.4648C4.15696 14.458 4.00047 14.4195 3.8561 14.3515C3.71173 14.2835 3.58236 14.1874 3.47558 14.0688C3.3688 13.9502 3.28675 13.8115 3.23422 13.6608C3.1817 13.5101 3.15976 13.3505 3.16968 13.1912C3.17961 13.0319 3.2212 12.8762 3.29203 12.7332C3.36285 12.5902 3.46149 12.4628 3.58217 12.3584L7.58297 8.75839C7.81946 8.54553 8.13081 8.43531 8.44856 8.45196C8.7663 8.46862 9.06442 8.61078 9.27737 8.84719ZM23.6774 12.4472C23.8902 12.6837 24.0004 12.995 23.9838 13.3128C23.9671 13.6305 23.825 13.9286 23.5886 14.1416L19.5878 17.7416C19.4713 17.8507 19.3343 17.9355 19.1846 17.991C19.035 18.0464 18.8758 18.0715 18.7164 18.0648C18.557 18.058 18.4005 18.0195 18.2561 17.9515C18.1117 17.8835 17.9824 17.7874 17.8756 17.6688C17.7688 17.5502 17.6868 17.4115 17.6342 17.2608C17.5817 17.1101 17.5598 16.9505 17.5697 16.7912C17.5796 16.6319 17.6212 16.4762 17.692 16.3332C17.7629 16.1902 17.8615 16.0628 17.9822 15.9584L21.983 12.3584C22.2195 12.1455 22.5308 12.0353 22.8486 12.052C23.1663 12.0686 23.4644 12.2108 23.6774 12.4472Z" fill="black"/>
<path fill-rule="evenodd" clip-rule="evenodd" d="M17.8933 8.8472C18.1063 8.61079 18.4044 8.46862 18.7221 8.45197C19.0399 8.43532 19.3512 8.54554 19.5877 8.7584L23.5885 12.3584C23.8178 12.5732 23.9537 12.8693 23.967 13.1832C23.9804 13.497 23.8701 13.8036 23.6599 14.0371C23.4497 14.2706 23.1563 14.4123 22.8427 14.4318C22.5292 14.4514 22.2205 14.3472 21.9829 14.1416L17.9821 10.5416C17.7457 10.3286 17.6035 10.0305 17.5869 9.71278C17.5702 9.39504 17.6805 9.08369 17.8933 8.8472ZM15.7009 5.492C15.853 5.53341 15.9954 5.60439 16.1201 5.70087C16.2447 5.79735 16.3492 5.91744 16.4274 6.05428C16.5056 6.19113 16.5561 6.34204 16.576 6.49841C16.5959 6.65477 16.5848 6.81353 16.5433 6.9656L12.9433 20.1656C12.9019 20.3177 12.8309 20.4601 12.7344 20.5847C12.6379 20.7094 12.5178 20.8138 12.381 20.892C12.2442 20.9702 12.0932 21.0207 11.9369 21.0406C11.7805 21.0605 11.6218 21.0494 11.4697 21.008C11.3176 20.9666 11.1752 20.8956 11.0506 20.7991C10.926 20.7026 10.8216 20.5825 10.7433 20.4457C10.6651 20.3088 10.6146 20.1579 10.5947 20.0016C10.5748 19.8452 10.5859 19.6865 10.6273 19.5344L14.2273 6.3344C14.2687 6.18231 14.3397 6.03987 14.4362 5.91522C14.5327 5.79057 14.6528 5.68615 14.7896 5.60792C14.9264 5.52969 15.0774 5.47919 15.2337 5.4593C15.3901 5.43941 15.5488 5.45052 15.7009 5.492Z" fill="black"/>
<path d="M0.751966 32.375C0.751966 33.134 1.36797 33.75 2.12697 33.75H21.6556C23.7878 33.75 24.5853 33.0808 24.5853 30.8167V28.1675M0.751966 32.375C0.751966 31.281 1.18656 30.2318 1.96015 29.4582C2.73374 28.6846 3.78295 28.25 4.87697 28.25H23.489C23.9033 28.25 24.2687 28.2225 24.5853 28.1675M0.751966 32.375V6.61667C0.751966 4.534 0.619966 2.23683 2.75397 1.14967C3.53863 0.75 4.5653 0.75 6.61863 0.75H23.4853C25.7513 0.75 26.4186 1.55117 26.4186 3.68333V25.3167C26.4186 27.1408 25.9016 27.9292 24.5853 28.1675" stroke="black" stroke-width="1.5" stroke-linecap="round" stroke-linejoin="round"/>
</svg>
