<svg width="21" height="21" viewBox="0 0 21 21" fill="none" xmlns="http://www.w3.org/2000/svg">
<path d="M18.4816 18.6864C18.5582 18.8556 18.5906 19.0408 18.5757 19.2252C18.5608 19.4097 18.4991 19.5876 18.3963 19.7428C18.2935 19.898 18.1527 20.0256 17.9869 20.1139C17.821 20.2022 17.6352 20.2486 17.4465 20.2487H2.71273C2.5239 20.2487 2.33806 20.2025 2.17209 20.1142C2.00612 20.0259 1.86527 19.8983 1.76236 19.7431C1.65944 19.5879 1.59771 19.41 1.58277 19.2254C1.56784 19.0409 1.60017 18.8556 1.67684 18.6864L3.27941 15.2487H16.8798L18.4816 18.6864Z" stroke="black" stroke-width="1.5" stroke-linecap="round" stroke-linejoin="round"/>
<path d="M8.57922 18.2487H11.5792" stroke="black" stroke-width="1.5" stroke-linecap="round" stroke-linejoin="round"/>
<path d="M3.32715 11.7949L3.05273 11.6562C2.07374 11.1603 1.31189 10.3738 0.883789 9.43262C0.456102 8.49233 0.383474 7.44733 0.676758 6.46582C0.970268 5.48356 1.61591 4.61544 2.51562 4.00781C3.41598 3.39984 4.51515 3.09061 5.63379 3.13672L5.95508 3.14941L6.10059 2.86328C6.45589 2.16306 7.02072 1.56588 7.7334 1.14551C8.44627 0.725082 9.27566 0.5 10.125 0.5C10.9743 0.5 11.8037 0.725082 12.5166 1.14551C13.2293 1.56588 13.7941 2.16305 14.1494 2.86328L14.2949 3.14941L14.6162 3.13672C15.7352 3.09059 16.8352 3.39888 17.7354 4.00684C18.6349 4.61444 19.2798 5.48275 19.5732 6.46484C19.8665 7.44634 19.7939 8.49137 19.3662 9.43164C18.9381 10.3728 18.1763 11.1593 17.1973 11.6553L16.9229 11.7939V14.7334C16.9229 14.7551 16.9235 14.7759 16.9238 14.7959C16.8829 14.8916 16.8273 14.9738 16.7383 15.0566L16.7373 15.0576C16.6598 15.1299 16.4758 15.1964 16.1143 15.2266C15.9476 15.2405 15.7748 15.245 15.5908 15.251C15.4153 15.2567 15.2228 15.2635 15.0488 15.2852H15.0479C14.5265 15.3505 13.8563 15.3516 12.999 15.3516H7.25098C6.39377 15.3516 5.72346 15.3505 5.20215 15.2852H5.20117C4.98123 15.2578 4.75755 15.2838 4.57227 15.3135C4.47686 15.3288 4.38091 15.3463 4.29297 15.3633C4.20246 15.3808 4.1204 15.3975 4.04004 15.4111C3.87476 15.4391 3.75579 15.4488 3.66797 15.4414C3.58728 15.4346 3.57066 15.4163 3.57031 15.416L3.56934 15.415C3.55471 15.4014 3.54216 15.3883 3.53027 15.377C3.55686 15.2757 3.5791 15.1542 3.5791 15V14.9639L3.57422 14.9287C3.56787 14.8848 3.55906 14.8396 3.54785 14.7959C3.53738 14.7551 3.52034 14.6978 3.48926 14.6387C3.46679 14.596 3.41749 14.5167 3.32715 14.4502V11.7949Z" stroke="black"/>
<path fill-rule="evenodd" clip-rule="evenodd" d="M6.57922 11.85C6.57922 11.6246 6.65297 11.4084 6.78425 11.249C6.91552 11.0896 7.09357 11 7.27922 11H12.8792C13.0649 11 13.2429 11.0896 13.3742 11.249C13.5055 11.4084 13.5792 11.6246 13.5792 11.85C13.5792 12.0754 13.5055 12.2916 13.3742 12.451C13.2429 12.6104 13.0649 12.7 12.8792 12.7H7.27922C7.09357 12.7 6.91552 12.6104 6.78425 12.451C6.65297 12.2916 6.57922 12.0754 6.57922 11.85Z" fill="black"/>
</svg>
