<svg width="797" height="597" viewBox="0 0 797 597" fill="none" xmlns="http://www.w3.org/2000/svg">
<g clip-path="url(#clip0_3691_89)">
<path d="M383.879 0.810303C384.703 0.811028 385.527 0.811753 386.375 0.8125C387.221 0.812581 388.067 0.812661 388.939 0.812744C397.358 0.886627 405.628 1.74202 413.977 2.76514C416.667 3.07739 419.363 3.28667 422.063 3.5C426 4 426 4 428 6C430.408 6.94836 432.81 7.83197 435.25 8.6875C454.477 15.7122 469.605 26.605 484 41C487.078 40.9765 487.078 40.9765 490.75 40.5625C501.192 39.6707 511.559 40.3633 522 41C522.33 41.66 522.66 42.32 523 43C525.58 43.6909 525.58 43.6909 528.563 44.125C529.575 44.2926 530.586 44.4602 531.629 44.6328C532.803 44.8146 532.803 44.8146 534 45C534 45.66 534 46.32 534 47C535.196 47.3094 536.393 47.6188 537.625 47.9375C548.847 51.7017 558.734 59.7485 567 68C567.696 68.6845 568.392 69.369 569.109 70.0742C580.485 82.0005 588.177 98.6695 590 115C590.072 115.635 590.145 116.27 590.219 116.924C592.055 134.236 590.161 152.368 582 168C584.475 168.99 584.475 168.99 587 170C587 170.66 587 171.32 587 172C587.648 170.73 588.294 169.459 588.938 168.188C589.477 167.126 589.477 167.126 590.027 166.043C591.107 163.882 591.107 163.882 592 161C592.447 160.559 592.894 160.118 593.355 159.664C595.524 157.47 596.811 155.069 598.32 152.379C599.247 150.729 599.247 150.729 600.192 149.045C601.149 147.321 601.149 147.321 602.125 145.562C602.771 144.417 603.417 143.272 604.082 142.092C607.336 136.685 607.336 136.685 609.504 130.828C610.135 128.505 611.273 127.641 613 126C614.122 124.173 614.122 124.173 615.086 122.164C615.46 121.429 615.834 120.695 616.219 119.938C616.985 118.405 617.748 116.871 618.508 115.336C623.086 106.367 629.462 101.429 638.563 97.4375C649.872 95.1668 662.634 102.926 672.233 108.064C674.627 109.332 677.062 110.508 679.5 111.688C683.243 113.549 686.735 115.671 690.246 117.934C692.405 119.246 694.621 120.16 697 121C703.533 124.266 709.745 128.238 716 132C717.035 132.616 718.07 133.232 719.137 133.867C725.743 138.096 730.343 143.476 732.633 151.109C735.1 163.812 726.887 175.168 720.625 185.562C719.874 186.824 719.124 188.087 718.375 189.35C716.262 192.907 714.133 196.454 712 200C710.87 201.881 709.74 203.763 708.609 205.645C708.158 206.395 707.707 207.145 707.241 207.917C705.451 210.921 703.721 213.956 702 217C703.32 217 704.64 217 706 217C707.71 218.622 709.374 220.294 711 222C711.928 222.557 712.856 223.114 713.813 223.688C714.534 224.121 715.256 224.554 716 225C716 225.66 716 226.32 716 227C716.552 227.235 717.104 227.469 717.672 227.711C728.602 233.763 736.185 246.231 739.574 257.993C742.063 269.722 739.558 280.213 735 291C734.316 292.994 733.644 294.993 733 297C734.825 299.028 736.568 300.37 738.875 301.875C742.032 304.021 744.368 306.242 747 309C747.643 309.623 748.287 310.245 748.949 310.887C752.884 314.705 756.117 318.343 759 323C759.66 323.66 760.32 324.32 761 325C764.341 331.168 766.546 337.158 767.543 344.102C767.694 344.728 767.845 345.355 768 346C768.66 346.33 769.32 346.66 770 347C771.106 363.093 772.05 377.468 765.121 392.477C764.14 394.686 763.38 396.617 763 399C763.33 399.66 763.66 400.32 764 401C762.68 401 761.36 401 760 401C760.66 401.33 761.32 401.66 762 402C762.289 402.969 762.578 403.939 762.875 404.938C763.624 408.083 763.624 408.083 765.82 408.859C768.821 410.43 770.082 412.543 772 415.312C773.954 418.11 775.856 420.832 778.078 423.422C784.619 432.196 786.343 444.402 785 455C783.658 460.75 781.789 465.944 778.625 470.938C776.665 473.847 776.665 473.847 777.563 476.75C779.697 480.09 781.692 481.794 785 484C785.699 485.316 786.367 486.65 787 488C787.66 488.66 788.32 489.32 789 490C789.33 490.99 789.66 491.98 790 493C791.259 495.748 792.55 498.48 793.844 501.211C797.426 509.852 797.373 521.067 794.375 529.875C791.078 537.672 786.547 543.889 780.32 549.59C778.772 550.921 778.772 550.921 779 553C778.165 553.186 778.165 553.186 777.313 553.375C774.758 554.065 772.406 554.895 770 556C769.67 556.66 769.34 557.32 769 558C750.656 566.113 729.189 571.468 709 571C709 571.66 709 572.32 709 573C709.598 572.835 710.196 572.67 710.813 572.5C713 572 713 572 716 572C716.99 571.67 717.98 571.34 719 571C719 572.65 719 574.3 719 576C718.01 576 717.02 576 716 576C715.67 576.66 715.34 577.32 715 578C714.67 577.67 714.34 577.34 714 577C706.563 576.317 698.128 576.804 691 579C689.568 580.964 689.568 580.964 689 583C689 582.34 689 581.68 689 581C686.69 581.33 684.38 581.66 682 582C682 581.67 682 581.34 682 581C679.561 581.087 677.125 581.194 674.688 581.312C673.652 581.346 673.652 581.346 672.596 581.381C668.565 581.542 668.565 581.542 665.188 583.531C664.796 584.016 664.404 584.501 664 585C661.313 585.188 661.313 585.188 659 585C658.67 584.34 658.34 583.68 658 583C651.168 583.262 644.336 583.529 637.505 583.8C635.183 583.891 632.861 583.981 630.539 584.07C627.192 584.198 623.846 584.331 620.5 584.465C618.954 584.523 618.954 584.523 617.377 584.582C616.397 584.622 615.416 584.662 614.406 584.703C613.554 584.736 612.701 584.77 611.822 584.804C609.638 584.956 607.46 585.21 605.29 585.505C601.357 586.002 597.505 586.119 593.536 586.11C592.826 586.11 592.117 586.11 591.385 586.109C589.019 586.107 586.652 586.098 584.286 586.089C582.567 586.086 580.848 586.083 579.13 586.081C574.415 586.074 569.7 586.061 564.985 586.046C559.896 586.032 554.807 586.023 549.718 586.013C539.748 585.994 529.778 585.969 519.808 585.942C511.696 585.92 503.584 585.9 495.472 585.882C494.317 585.879 493.162 585.876 491.972 585.874C489.625 585.868 487.278 585.863 484.931 585.858C462.914 585.808 440.896 585.751 418.879 585.693C400.023 585.643 381.167 585.599 362.312 585.558C340.396 585.51 318.48 585.459 296.564 585.404C294.221 585.398 291.878 585.392 289.535 585.386C288.382 585.383 287.23 585.38 286.042 585.377C277.956 585.357 269.87 585.339 261.784 585.321C251.906 585.3 242.028 585.276 232.149 585.247C227.118 585.232 222.086 585.219 217.054 585.21C193.201 585.166 169.402 585.095 145.625 582.938C138.718 582.318 131.937 581.892 125 582C125 581.34 125 580.68 125 580C121.882 580.646 121.882 580.646 121 583C118.13 582.59 116.193 582.125 113.742 580.531C106.639 576.565 96.9714 576.696 88.9884 577.125C87.0001 577 87.0001 577 84.0001 575C84.0001 574.34 84.0001 573.68 84.0001 573C85.6501 573 87.3001 573 89.0001 573C88.6701 572.34 88.3401 571.68 88.0001 571C85.3505 570.499 85.3505 570.499 82.1212 570.289C80.8972 570.181 79.6733 570.073 78.4122 569.961C77.1006 569.85 75.789 569.739 74.4376 569.625C51.7962 567.532 28.6073 562.811 12.0001 546C11.0101 544.515 11.0101 544.515 10.0001 543C9.0101 543 8.0201 543 7.0001 543C6.5051 540.03 6.5051 540.03 6.0001 537C5.3401 537.33 4.6801 537.66 4.0001 538C3.49128 535.335 2.9929 532.668 2.5001 530C2.28547 528.884 2.28547 528.884 2.06651 527.746C-0.202631 515.32 1.16259 503.24 8.18369 492.488C16.471 481.136 16.471 481.136 20.7071 477.559C22.7072 475.148 22.8107 473.087 23.0001 470C22.3106 466.997 22.3106 466.997 21.1251 464.062C15.1514 447.274 18.2455 431.977 25.0001 416C25.65 414.658 26.3122 413.322 27.0001 412C27.3301 411.34 27.6601 410.68 28.0001 410C29.3334 408.667 30.6668 407.333 32.0001 406C32.3301 405.34 32.6601 404.68 33.0001 404C33.6601 404 34.3201 404 35.0001 404C35.2463 403.415 35.4925 402.83 35.7462 402.227C37.1938 399.656 38.7925 398.245 41.0626 396.375C43.9789 394.045 43.9789 394.045 46.0001 391C46.6601 391 47.3201 391 48.0001 391C48.3301 389.68 48.6601 388.36 49.0001 387C49.6601 387 50.3201 387 51.0001 387C49.6801 385.35 48.3601 383.7 47.0001 382C46.3401 382.99 45.6801 383.98 45.0001 385C45.3346 383.714 45.3346 383.714 45.6759 382.402C46.0751 378.212 45.0931 376.28 43.1876 372.562C39.6863 365.487 39.6863 365.487 38.7501 361.75C38.5026 360.842 38.2551 359.935 38.0001 359C37.3401 358.67 36.6801 358.34 36.0001 358C35.3751 355.438 35.3751 355.438 35.0001 353C35.6601 353 36.3201 353 37.0001 353C36.9537 351.742 36.9073 350.484 36.8595 349.188C36.5699 337.704 37.6444 327.997 41.0001 317C41.3435 315.669 41.6825 314.337 42.0001 313C42.6601 313 43.3201 313 44.0001 313C44.2592 312.116 44.5183 311.231 44.7853 310.32C47.7199 302.3 54.023 295.775 59.6876 289.5C60.1387 288.996 60.5898 288.492 61.0545 287.972C63.7949 285.008 66.5123 282.993 70.0001 281C71.3584 279.354 72.6926 277.687 74.0001 276C76.2501 274.188 76.2501 274.188 78.0001 273C77.6495 272.381 77.2988 271.762 76.9376 271.125C76.6282 270.424 76.3188 269.723 76.0001 269C76.3301 268.34 76.6601 267.68 77.0001 267C76.4881 264.969 76.4881 264.969 75.6251 262.75C71.4378 250.723 71.9644 238.405 77.5118 226.852C83.1203 216.845 89.7406 209.922 98.7423 202.883C101.067 201.2 101.067 201.2 102 199C103.155 198.691 104.31 198.381 105.5 198.062C106.655 197.712 107.81 197.361 109 197C110.315 194.179 110.315 194.179 109.223 192.246C108.84 191.649 108.457 191.052 108.063 190.438C106 187.186 106 187.186 106 185C105.423 184.917 104.845 184.835 104.25 184.75C101.384 183.795 100.001 182.215 98.0001 180C99.3201 179.67 100.64 179.34 102 179C101.505 177.855 101.505 177.855 101 176.688C100 174 100 174 100 171C99.3401 170.67 98.6801 170.34 98.0001 170C97.3557 167.172 96.9768 164.339 96.5626 161.469C96.377 160.654 96.1913 159.839 96.0001 159C95.3401 158.67 94.6801 158.34 94.0001 158C94.0001 155.667 94.0001 153.333 94.0001 151C93.3401 150.01 92.6801 149.02 92.0001 148C92.9901 147.67 93.9801 147.34 95.0001 147C95.0259 146.201 95.0517 145.402 95.0782 144.578C95.7385 131.793 98.8707 121.971 107 112C107.75 111.045 107.75 111.045 108.516 110.07C117.41 99.9627 131.782 95.9318 144.727 95.0352C160.15 94.8695 177.116 99.8486 189 110C189 110.66 189 111.32 189 112C189.607 112.254 190.214 112.508 190.84 112.77C196.309 115.885 198.775 123.38 201 129C201.99 129 202.98 129 204 129C204 128.34 204 127.68 204 127C204.66 127 205.32 127 206 127C206 126.34 206 125.68 206 125C205.34 124.67 204.68 124.34 204 124C204.33 123.67 204.66 123.34 205 123C205.136 120.96 205.233 118.918 205.313 116.875C206.474 99.788 212.519 83.8374 224 71C224.632 70.2755 225.263 69.5511 225.914 68.8047C241.222 52.3497 262.767 43.5329 285 42.0547C291.039 41.9446 297.242 42.0805 303 44C303.221 43.4534 303.441 42.9069 303.668 42.3438C305.423 39.2554 307.791 36.9579 310.313 34.5C310.786 34.0269 311.26 33.5538 311.748 33.0664C314.686 30.1648 317.754 27.5474 321 25C321.66 24.34 322.32 23.68 323 23C327.582 20.1848 332.289 17.5922 337 15C337.59 14.6724 338.179 14.3448 338.787 14.0073C350.413 7.61352 361.952 4.45744 375.024 2.39453C382.915 0.819443 382.915 0.819443 383.879 0.810303ZM103 181C104 183 104 183 104 183L103 181ZM37.0001 354C38.0001 357 38.0001 357 38.0001 357L37.0001 354ZM90.0001 571C90.6601 571.66 91.3201 572.32 92.0001 573C92.3301 572.34 92.6601 571.68 93.0001 571C92.0101 571 91.0201 571 90.0001 571ZM684 579C684 579.33 684 579.66 684 580C685.65 580 687.3 580 689 580C689 579.67 689 579.34 689 579C687.35 579 685.7 579 684 579Z" fill="#FBFBFB"/>
<path d="M182.396 309.866C183.541 309.862 183.54 309.862 184.708 309.859C187.286 309.852 189.864 309.852 192.442 309.853C194.301 309.85 196.159 309.846 198.018 309.842C203.142 309.832 208.265 309.828 213.389 309.825C218.909 309.821 224.428 309.812 229.948 309.803C243.284 309.783 256.621 309.773 269.958 309.764C276.234 309.76 282.509 309.755 288.785 309.749C309.638 309.732 330.492 309.718 351.345 309.711C352.694 309.71 354.042 309.71 355.391 309.709C356.06 309.709 356.729 309.709 357.418 309.708C360.807 309.707 364.196 309.706 367.585 309.705C368.594 309.704 368.594 309.704 369.623 309.704C391.435 309.696 413.247 309.673 435.06 309.64C458.114 309.606 481.169 309.586 504.224 309.583C516.794 309.581 529.364 309.572 541.934 309.547C552.636 309.525 563.338 309.517 574.04 309.526C579.503 309.531 584.966 309.529 590.429 309.51C595.427 309.492 600.425 309.493 605.423 309.509C607.234 309.511 609.045 309.507 610.856 309.495C613.313 309.48 615.769 309.489 618.227 309.505C619.287 309.49 619.287 309.49 620.369 309.474C625.335 309.544 628.173 310.89 632 314C635.806 321.612 632.365 333.87 631.377 342.12C631.051 344.848 630.732 347.576 630.415 350.304C630.049 353.45 629.682 356.596 629.313 359.741C627.599 374.375 625.94 389.016 624.275 403.655C623.588 409.691 622.9 415.727 622.211 421.763C621.928 424.241 621.646 426.719 621.363 429.197C621.179 430.811 620.995 432.425 620.811 434.039C619.891 442.101 618.977 450.164 618.095 458.23C617.957 459.483 617.82 460.736 617.678 462.026C617.427 464.323 617.178 466.621 616.932 468.918C616.768 470.422 616.768 470.422 616.6 471.957C616.507 472.817 616.415 473.677 616.32 474.564C615.991 477.072 615.524 479.525 615 482C616.102 481.954 617.204 481.907 618.34 481.859C633.576 481.417 647.45 483.691 661 491C662.257 491.661 662.257 491.661 663.539 492.336C670.158 496.045 675.602 500.693 681 506C681.628 506.615 682.256 507.23 682.902 507.863C692.161 517.667 699.002 530.53 699.375 544.062C699.174 550.985 698.809 555.966 694.008 561.152C689.939 564.941 686.05 567.632 681 570C681.772 570.111 682.544 570.221 683.339 570.335C686.831 570.841 690.322 571.358 693.812 571.875C695.635 572.136 695.635 572.136 697.494 572.402C699.239 572.663 699.239 572.663 701.02 572.93C702.093 573.087 703.167 573.244 704.273 573.406C707 574 707 574 710 576C709.152 576.105 709.152 576.105 708.288 576.212C705.731 576.539 703.178 576.894 700.625 577.25C699.291 577.414 699.291 577.414 697.93 577.582C697.079 577.704 696.228 577.827 695.352 577.953C694.173 578.11 694.173 578.11 692.971 578.271C690.805 578.842 690.805 578.842 689.728 581.065C689.488 581.704 689.248 582.342 689 583C689 582.34 689 581.68 689 581C686.69 581.33 684.38 581.66 682 582C682 581.67 682 581.34 682 581C679.561 581.087 677.125 581.194 674.688 581.312C673.997 581.335 673.307 581.358 672.596 581.381C668.565 581.542 668.565 581.542 665.188 583.531C664.6 584.258 664.6 584.258 664 585C661.312 585.188 661.312 585.188 659 585C658.67 584.34 658.34 583.68 658 583C651.168 583.262 644.336 583.529 637.504 583.8C635.183 583.891 632.861 583.981 630.539 584.07C627.192 584.198 623.846 584.331 620.5 584.465C618.954 584.523 618.954 584.523 617.377 584.582C616.397 584.622 615.416 584.662 614.406 584.703C613.554 584.736 612.701 584.77 611.822 584.804C609.638 584.956 607.46 585.21 605.29 585.505C601.357 586.002 597.505 586.119 593.536 586.11C592.472 586.11 592.472 586.11 591.385 586.11C589.019 586.108 586.652 586.098 584.286 586.089C582.567 586.086 580.848 586.084 579.129 586.081C574.415 586.074 569.7 586.061 564.985 586.046C559.896 586.032 554.807 586.023 549.718 586.013C539.748 585.994 529.778 585.969 519.808 585.942C511.696 585.92 503.584 585.9 495.472 585.882C494.317 585.879 493.162 585.876 491.972 585.874C489.625 585.868 487.278 585.863 484.931 585.858C462.914 585.808 440.896 585.752 418.879 585.693C400.023 585.643 381.167 585.599 362.312 585.558C340.396 585.51 318.48 585.459 296.563 585.404C294.221 585.398 291.878 585.392 289.535 585.386C288.382 585.383 287.23 585.38 286.042 585.377C277.956 585.357 269.87 585.339 261.784 585.322C251.906 585.3 242.028 585.276 232.149 585.247C227.118 585.232 222.086 585.219 217.054 585.21C193.201 585.166 169.402 585.095 145.625 582.938C138.718 582.318 131.937 581.892 125 582C125 581.34 125 580.68 125 580C121.882 580.646 121.882 580.646 121 583C118.205 582.601 116.316 582.227 114 580.562C109.582 578.261 105.091 577.915 100.188 577.312C99.2085 577.183 98.2294 577.053 97.2207 576.92C94.8149 576.603 92.4083 576.297 90 576C92.2937 573.706 93.0672 573.631 96.1836 573.184C97.0244 573.06 97.8652 572.936 98.7314 572.808C99.6244 572.686 100.517 572.563 101.438 572.438C102.34 572.308 103.242 572.179 104.171 572.046C110.431 571.166 116.691 570.42 123 570C122.336 569.636 121.672 569.273 120.988 568.898C113.232 564.483 108.477 560.897 106 552C104.328 535.938 110.115 522.534 120.074 510.25C132.559 495.663 150.441 483.692 170.01 481.806C172.137 481.658 174.265 481.533 176.395 481.422C177.129 481.38 177.864 481.338 178.621 481.294C180.414 481.192 182.207 481.096 184 481C183.942 480.434 183.884 479.868 183.824 479.284C182.386 465.292 180.95 451.3 179.513 437.308C178.819 430.54 178.124 423.773 177.429 417.005C175.975 402.855 174.524 388.705 173.079 374.553C172.396 367.869 171.71 361.185 171.021 354.501C170.635 350.752 170.253 347.004 169.872 343.255C169.7 341.571 169.526 339.888 169.351 338.204C169.116 335.932 168.885 333.659 168.655 331.387C168.527 330.141 168.4 328.895 168.268 327.612C167.47 316.859 167.47 316.859 169.812 313.062C173.613 309.479 177.468 309.856 182.396 309.866ZM684 579C684 579.33 684 579.66 684 580C685.65 580 687.3 580 689 580C689 579.67 689 579.34 689 579C687.35 579 685.7 579 684 579Z" fill="#0A0B0B"/>
<path d="M455.878 36.3994C464.254 42.7269 473.157 50.2344 479 59C479.837 58.8556 480.673 58.7112 481.535 58.5625C499.852 55.6415 518.424 55.7827 535 65C535.913 65.504 536.826 66.008 537.766 66.5273C553.108 75.6342 563.703 89.8367 568.567 106.999C573.274 126.007 570.251 146.675 560.317 163.461C550.599 178.821 535.375 189.172 517.761 193.558C496.022 198.354 476.904 194.048 458 183C458.598 182.056 458.598 182.056 459.207 181.094C462.46 175.839 465.046 170.863 467 165C465.983 165.853 465.983 165.853 464.946 166.723C440.721 186.821 416.425 195.597 384.71 192.798C365.808 190.272 348.417 180.136 335 167C334.284 166.299 333.567 165.597 332.828 164.875C331.204 163.264 329.594 161.641 328 160C331.772 176.235 341.814 188.85 355.563 197.937C357.357 198.99 359.169 200.013 361 201C361.848 201.459 362.697 201.918 363.571 202.391C382.47 211.756 406.725 213.756 426.844 207.203C428.406 206.608 428.406 206.608 430 206C431.083 205.603 432.166 205.206 433.282 204.797C438.695 202.68 443.52 200.305 448.184 196.82C450.863 195.61 452.207 196.114 455 197C457.473 198.207 459.89 199.451 462.313 200.75C475.091 207.332 487.725 210.626 502 212C504.178 218.833 504.51 225.361 504.591 232.498C504.614 233.92 504.655 235.342 504.714 236.763C505.199 248.525 505.199 248.525 502.415 251.952C500.321 253.288 498.332 254.158 496 255C494.88 255.597 493.76 256.194 492.606 256.809C441.133 281.339 375.355 280.969 321.996 262.301C297.607 253.333 297.607 253.333 293 247C292.714 244.377 292.603 241.996 292.637 239.375C292.636 238.26 292.636 238.26 292.635 237.123C292.638 235.552 292.648 233.982 292.664 232.412C292.688 230.009 292.685 227.607 292.678 225.203C292.684 223.677 292.691 222.151 292.699 220.625C292.699 219.906 292.698 219.187 292.697 218.447C292.749 214.754 292.897 213.155 295 210C296.98 209.204 296.98 209.204 299.403 208.605C300.288 208.375 301.174 208.145 302.086 207.908C303.027 207.67 303.968 207.433 304.938 207.187C316.022 204.197 325.253 200.795 333 192C327.749 192.441 322.593 193.047 317.41 194.016C295.015 197.79 273.413 194.999 254.371 182.238C252.159 180.572 250.069 178.84 248 177C247.4 176.48 246.799 175.961 246.18 175.426C233.383 163.576 226.368 146.239 225.629 128.961C225.233 107.802 228.836 92.7046 243.625 76.75C256.085 64.8995 272.994 58.6207 290.196 58.7695C297.838 59.3975 305.598 61.0399 313 63C313.27 62.2601 313.539 61.5201 313.817 60.7578C321.625 42.565 341.704 30.6302 359 23C390.932 10.354 428.273 16.3095 455.878 36.3994Z" fill="#FEFEFE"/>
<path d="M375.023 2.58423C382.914 1.00914 382.914 1.00914 383.879 1C384.703 1.00073 385.526 1.00145 386.375 1.0022C387.221 1.00228 388.067 1.00236 388.939 1.00244C397.358 1.07632 405.628 1.93171 413.977 2.95483C416.667 3.26709 419.363 3.47637 422.062 3.6897C426 4.1897 426 4.1897 428 6.1897C430.408 7.13806 432.81 8.02167 435.25 8.8772C454.476 15.9019 469.605 26.7947 484 41.1897C487.078 41.1662 487.078 41.1662 490.75 40.7522C501.192 39.8604 511.559 40.553 522 41.1897C522.33 41.8497 522.66 42.5097 523 43.1897C525.58 43.8806 525.58 43.8806 528.562 44.3147C529.574 44.4823 530.586 44.6499 531.629 44.8225C532.803 45.0043 532.803 45.0043 534 45.1897C534 45.8497 534 46.5097 534 47.1897C535.196 47.4991 536.393 47.8084 537.625 48.1272C548.847 51.8914 558.734 59.9382 567 68.1897C568.044 69.2164 568.044 69.2164 569.109 70.2639C580.485 82.1902 588.176 98.8592 590 115.19C590.072 115.825 590.145 116.46 590.219 117.114C592.055 134.426 587.161 157.558 579 173.19C580.184 173.663 583.64 178.082 585 177V175.815C584.816 177.864 584.67 176.39 587 172.19C590.5 165.879 588.294 169.649 588.938 168.377C589.297 167.67 589.657 166.962 590.027 166.233C591.107 164.072 591.107 164.072 592 161.19C592.447 160.749 592.894 160.308 593.355 159.854C595.524 157.659 596.811 155.258 598.32 152.569C598.938 151.468 599.555 150.368 600.191 149.235C600.829 148.085 601.468 146.936 602.125 145.752C603.094 144.034 603.094 144.034 604.082 142.281C607.336 136.874 607.336 136.874 609.503 131.018C610.134 128.695 611.273 127.831 613 126.19C614.122 124.363 614.122 124.363 615.086 122.354C615.647 121.252 615.647 121.252 616.219 120.127C616.985 118.595 617.748 117.061 618.508 115.526C623.086 106.557 629.462 101.619 638.562 97.6272C649.872 95.3565 662.634 103.115 672.233 108.254C674.627 109.521 677.062 110.697 679.5 111.877C683.243 113.739 686.735 115.86 690.246 118.123C692.405 119.436 694.621 120.35 697 121.19C703.533 124.456 709.745 128.428 716 132.19C717.035 132.806 718.07 133.422 719.137 134.057C725.743 138.286 730.343 143.666 732.633 151.299C735.1 164.002 726.887 175.358 720.625 185.752C719.874 187.014 719.124 188.276 718.375 189.539C716.262 193.096 714.131 196.643 712 200.19C711.447 201.117 710.894 202.044 710.324 203C705.554 210.992 700.577 218.847 695.58 226.698C694.028 229.145 692.49 231.6 690.953 234.057C689.99 235.581 689.026 237.104 688.062 238.627C687.627 239.33 687.191 240.034 686.741 240.758C682.816 246.916 678.619 250.509 671.586 252.658C665.247 253.961 658.76 253.437 652.375 252.69C647.544 252.164 642.73 251.972 637.875 251.877C637.123 251.848 636.37 251.818 635.595 251.787C628.897 251.717 623.911 253.696 618.82 258.057C615.558 261.921 612.448 265.854 609.494 269.961C608.653 271.13 607.799 272.29 606.933 273.442C604.461 276.808 602.59 280.002 600.996 283.869C598.545 289.16 596.322 293.417 591 296.19C579.165 298.87 565.973 297.197 554 296.19C557.657 289.313 561.51 282.659 565.75 276.127C569.87 269.684 573.83 263.179 577.562 256.502C577.968 255.785 578.373 255.067 578.79 254.328C583.143 246.435 586.34 239.401 585 230.19C583.824 226.411 582.25 222.89 580.562 219.315C579.728 217.485 578.896 215.654 578.066 213.823C577.509 212.63 577.509 212.63 576.94 211.413C574.604 205.887 573.495 199.995 575.757 194.275C577.693 190.051 579.861 185.953 582.085 181.875C583.102 180.001 584.064 178.105 585 176.19C584.602 177 581.731 175.434 580.5 175.244C579.654 175.038 579.871 173.713 579 173.5C578.67 172.84 579.34 173.87 579 173.19C579 173.19 578.416 174.207 577.82 175.244C567.395 192.588 550.951 205.012 531.312 210.002C529.544 210.409 527.774 210.809 526 211.19C525.878 212.374 525.755 213.559 525.629 214.78C524.887 221.458 523.9 228.102 522.938 234.752C522.751 236.047 522.565 237.342 522.373 238.676C521.917 241.847 521.459 245.019 521 248.19C525.285 241.288 528.938 234.836 530.938 226.94C531.144 226.183 531.351 225.426 531.564 224.647C532.058 222.832 532.532 221.011 533 219.19C538.535 219.827 543.314 221.678 548.438 223.752C549.313 224.104 550.188 224.456 551.089 224.819C570.676 232.866 570.676 232.866 576 238.19C575.206 250.611 564.927 264.814 557.951 274.705C555.948 277.616 554.355 280.464 552.918 283.689C550.432 288.765 547.812 293.051 543 296.19C533.667 298.842 523.491 297.875 513.899 297.357C510.3 297.181 506.699 297.105 503.098 297.02C496.06 296.839 489.031 296.55 482 296.19C482.208 295.576 482.416 294.961 482.631 294.329C483.038 293.117 483.038 293.117 483.454 291.881C483.724 291.082 483.994 290.282 484.272 289.458C485.102 286.871 485.698 284.299 486.188 281.627C486.346 280.78 486.505 279.933 486.668 279.061C486.832 278.135 486.832 278.135 487 277.19C486.441 277.819 485.881 278.448 485.305 279.096C475.886 289.151 465.042 296.243 451.062 297.561C449.709 297.6 448.354 297.622 447 297.627C446.279 297.631 445.558 297.635 444.815 297.639C436.731 297.47 429.503 295.017 422 292.19C422 292.85 422 293.51 422 294.19C422.763 294.478 423.526 294.767 424.312 295.065C427 296.19 427 296.19 430 298.19C430 298.85 430 299.51 430 300.19C422.553 299.016 415.605 296.81 408.516 294.311C396.786 290.57 388.757 292.407 377.777 296.721C364.614 301.888 350.339 302.106 337.211 296.729C327.495 292.072 320.312 286.073 313 278.19C313.32 282.994 314.504 286.574 316.551 290.951C317.008 291.935 317.464 292.918 317.935 293.931C318.286 294.676 318.638 295.422 319 296.19C311.866 296.444 304.733 296.619 297.595 296.739C295.169 296.789 292.743 296.857 290.318 296.944C286.824 297.066 283.335 297.122 279.84 297.166C278.76 297.218 277.681 297.269 276.569 297.323C272.015 297.326 269.169 297.325 265.807 294.061C263.993 291.507 262.466 288.956 261 286.19C260.088 284.637 259.176 283.085 258.262 281.533C257.392 279.925 256.535 278.31 255.688 276.69C255.227 275.811 254.766 274.933 254.291 274.027C248.582 262.821 244.202 251.03 240 239.19C239.629 238.168 239.258 237.146 238.875 236.094C238 233.19 238 233.19 238 229.19C240.54 228.061 243.082 226.937 245.625 225.815C246.338 225.498 247.051 225.18 247.785 224.854C258.376 220.19 258.376 220.19 264 220.19C264.375 221.396 264.75 222.603 265.137 223.846C265.653 225.461 266.17 227.075 266.688 228.69C266.932 229.481 267.176 230.273 267.428 231.088C269.238 236.681 271.663 241.354 275 246.19C274.549 241.897 274.088 237.606 273.625 233.315C273.499 232.111 273.372 230.907 273.242 229.666C272.491 222.751 271.527 215.978 270 209.19C269.376 209.032 268.753 208.874 268.11 208.711C255.937 205.533 245.314 199.577 236 191.19C235.401 190.671 234.801 190.153 234.184 189.619C216.952 173.707 209.56 151.719 206 129.19C205.34 129.19 204.68 129.19 204 129.19C204 128.53 204 127.87 204 127.19C204.66 127.19 205.32 127.19 206 127.19C206 126.53 206 125.87 206 125.19C205.34 124.86 204.68 124.53 204 124.19C204.495 123.695 204.495 123.695 205 123.19C205.136 121.15 205.233 119.107 205.312 117.065C206.474 99.9777 212.519 84.0271 224 71.1897C224.947 70.103 224.947 70.103 225.914 68.9944C241.222 52.5394 262.767 43.7226 285 42.2444C291.039 42.1343 297.242 42.2702 303 44.1897C303.331 43.3699 303.331 43.3699 303.668 42.5334C305.423 39.4451 307.791 37.1476 310.312 34.6897C310.786 34.2166 311.26 33.7435 311.748 33.2561C314.686 30.3545 317.754 27.7371 321 25.1897C321.66 24.5297 322.32 23.8697 323 23.1897C327.582 20.3745 332.289 17.7819 337 15.1897C337.59 14.8621 338.179 14.5345 338.787 14.197C350.413 7.80322 361.952 4.64714 375.023 2.58423ZM317.84 53.9006C314.294 58.0892 314.294 58.0892 313 63.1897C312.143 62.9847 311.286 62.7798 310.402 62.5686C290.573 57.8963 272.496 58.0477 254.352 68.7522C240.834 77.736 230.029 90.6187 226.396 106.734C223.12 127.077 225.874 148.856 237.918 165.905C239.868 168.413 241.892 170.812 244 173.19C244.531 173.815 245.062 174.44 245.609 175.084C256.11 186.598 273.292 194.26 288.804 195.395C291.893 195.494 294.972 195.517 298.062 195.502C299.159 195.501 300.256 195.5 301.386 195.498C309.109 195.408 316.283 194.603 323.793 192.846C326.957 192.198 329.781 192.072 333 192.19C324.837 202.223 313.028 205.539 300.917 208.454C296.142 209.548 296.142 209.548 293 213.19C292.733 215.731 292.576 218.162 292.523 220.709C292.507 221.445 292.491 222.182 292.475 222.94C292.447 224.498 292.425 226.055 292.41 227.613C292.387 229.201 292.346 230.788 292.287 232.375C291.648 241.348 291.648 241.348 294.59 249.48C296.661 251.08 298.606 252.146 301 253.19C302.097 253.807 303.194 254.425 304.324 255.061C358.204 280.155 424.577 282.296 480.41 262.389C493.063 257.756 493.063 257.756 504 250.19C504.22 245.881 504.186 241.567 504.185 237.254C504.187 235.094 504.206 232.935 504.225 230.776C504.228 229.39 504.23 228.005 504.23 226.619C504.235 225.364 504.239 224.108 504.243 222.814C503.983 218.932 503.196 215.873 502 212.19C500.802 212.031 499.605 211.873 498.371 211.709C483.143 209.579 470.077 206.034 457.023 197.666C454.196 196.004 454.196 196.004 451.566 196.225C448.078 197.536 444.84 199.245 441.562 201.002C434.216 204.821 427.073 207.259 419 209.19C418.098 209.451 418.098 209.451 417.178 209.718C396.134 214.276 374.103 208.979 356 198.19C352.76 196.071 349.866 193.788 347 191.19C346.255 190.548 345.51 189.906 344.742 189.244C336.138 181.34 330.488 171.604 328 160.19C328.848 161.096 329.696 162.002 330.57 162.936C347.142 180.29 368.013 192.627 392.59 193.428C409.981 193.73 424.135 191.768 440 184.19C440.923 183.749 441.846 183.308 442.797 182.854C449.982 179.18 455.893 174.421 462 169.19C463.662 167.85 465.327 166.515 467 165.19C466.258 167.068 465.506 168.942 464.75 170.815C464.332 171.859 463.915 172.903 463.484 173.979C461.922 177.358 460.135 180.151 458 183.19C476.965 194.273 496.698 198.926 518.5 193.627C537.096 188.208 552.771 177.26 562.25 160.127C570.871 143.541 572.776 124.308 568.438 106.127C562.757 88.1782 550.788 73.2087 534 64.4397C518.704 57.2622 502.184 55.0676 485.625 58.8147C479.812 59.7573 479.812 59.7573 476.406 57.3772C474.074 54.7576 472.035 52.0444 470 49.1897C454.104 30.9547 430.604 20.6665 407 17.1897C370.163 14.8595 342.484 26.4574 317.84 53.9006Z" fill="#0B0B0B"/>
<path d="M585 170C585 170 584.832 170.95 584.739 171.98L582.562 175.244C583.098 174.818 585 170 585 170Z" fill="#0B0B0B"/>
<path d="M189 110C189 110.66 189 111.32 189 112C189.909 112.387 189.909 112.387 190.836 112.781C195.207 115.243 197.355 119.851 198.762 124.539C199.723 129.054 200.244 133.37 200 138C197.459 135.473 194.939 132.936 192.457 130.352C182.969 120.569 174.043 114.308 161 110C159.919 109.629 159.919 109.629 158.816 109.25C148.73 106.23 137.815 107.355 128.59 112.289C121.141 116.94 115.711 122.6 112.695 130.949C108.795 148.063 114.299 165.275 123 180C135.97 199.586 153.225 212.338 175.875 218.5C191.162 222.738 196.83 234.836 204.563 247.875C210.733 258.151 217.424 267.946 224.378 277.702C226.935 281.325 229.414 284.999 231.875 288.687C232.298 289.318 232.721 289.948 233.157 290.598C236 294.875 236 294.875 236 296C235.258 296.001 234.516 296.003 233.752 296.004C226.72 296.022 219.689 296.064 212.658 296.132C209.044 296.166 205.431 296.191 201.816 296.196C198.321 296.2 194.827 296.229 191.332 296.273C189.366 296.293 187.4 296.287 185.433 296.281C177.656 296.406 171.415 297.354 165 302C157.849 309.664 157.653 316.458 157.902 326.579C158.224 334.508 159.148 342.403 159.969 350.293C160.171 352.298 160.373 354.304 160.574 356.309C161.1 361.537 161.635 366.764 162.172 371.991C163.034 380.393 163.882 388.797 164.73 397.2C165.027 400.123 165.327 403.047 165.628 405.97C165.81 407.757 165.992 409.545 166.174 411.333C166.258 412.141 166.342 412.948 166.429 413.781C166.808 417.535 167.1 421.225 167 425C159.099 423.794 152.739 418.625 147.68 412.609C145.484 409.199 144.031 405.62 142.5 401.875C139.283 394.121 136.693 390.015 128.762 386.609C127.562 386.12 126.362 385.63 125.125 385.125C116.817 381.722 110.362 377.59 106.5 369.25C105.956 367.85 105.452 366.433 105 365C104.805 364.392 104.611 363.783 104.41 363.156C103.842 360.168 103.907 357.289 103.938 354.25C103.947 353.08 103.956 351.909 103.965 350.703C103.977 349.811 103.988 348.919 104 348C95.9245 357.827 93.8752 366.306 94.7545 378.863C95.945 389.22 101.504 398.007 106.914 406.652C113.396 417.054 116.872 427.105 114.535 439.457C112.923 445.058 110.078 448.895 106 453C104.063 452.625 104.063 452.625 102 452C100.869 449.737 100.876 448.475 100.859 445.965C100.795 433.155 100.795 433.155 95.0001 422C94.6701 422 94.3401 422 94.0001 422C94.0465 422.557 94.0929 423.114 94.1407 423.687C94.5802 432.978 91.1752 437.744 85.1876 444.625C78.2063 452.712 71.7088 462.184 72.5001 473.328C73.5402 478.886 75.086 484.583 78.6368 489.066C80.0001 491 80.0001 491 80.0001 495C73.9985 494.7 70.2582 491.984 66.0001 488C62.0209 482.562 61.8233 475.527 61.0001 469C56.6921 474.308 53.9717 478.617 54.5079 485.609C56.014 492.925 61.2874 497.362 66.4376 502.375C73.3766 509.129 79.6407 515.867 80.1798 526.02C79.9133 528.957 78.8816 530.77 77.0001 533C73.7967 534.602 70.4832 534.349 67.0001 534C63.1342 532.594 61.6331 530.705 59.7501 527.187C58.2118 523.832 57.3696 520.695 57.0001 517C53.218 525.195 52.4741 533.479 55.4376 542.125C61.6237 555.553 73.9348 562.373 87.2345 567.371C87.8171 567.579 88.3998 567.786 89.0001 568C89.0001 568.33 89.0001 568.66 89.0001 569C62.315 569.684 34.3314 566.676 13.7774 547.832C12.0001 546 12.0001 546 10.0001 543C9.0101 543 8.0201 543 7.0001 543C6.6701 541.02 6.3401 539.04 6.0001 537C5.3401 537.33 4.6801 537.66 4.0001 538C3.49128 535.335 2.9929 532.668 2.5001 530C2.28547 528.884 2.28547 528.884 2.06651 527.746C-0.202631 515.32 1.16259 503.24 8.18369 492.488C16.471 481.136 16.471 481.136 20.7071 477.559C22.7072 475.148 22.8107 473.087 23.0001 470C22.3106 466.997 22.3106 466.997 21.1251 464.062C15.1514 447.274 18.2455 431.977 25.0001 416C25.65 414.658 26.3122 413.322 27.0001 412C27.3301 411.34 27.6601 410.68 28.0001 410C29.3334 408.667 30.6668 407.333 32.0001 406C32.3301 405.34 32.6601 404.68 33.0001 404C33.6601 404 34.3201 404 35.0001 404C35.2463 403.415 35.4925 402.83 35.7462 402.227C37.1938 399.656 38.7925 398.245 41.0626 396.375C43.9789 394.045 43.9789 394.045 46.0001 391C46.6601 391 47.3201 391 48.0001 391C48.3301 389.68 48.6601 388.36 49.0001 387C49.6601 387 50.3201 387 51.0001 387C49.6801 385.35 48.3601 383.7 47.0001 382C46.3401 382.99 45.6801 383.98 45.0001 385C45.3346 383.714 45.3346 383.714 45.6759 382.402C46.0751 378.212 45.0931 376.28 43.1876 372.562C39.6863 365.487 39.6863 365.487 38.7501 361.75C38.5026 360.842 38.2551 359.935 38.0001 359C37.3401 358.67 37.68 358.34 37 358C36.375 355.438 36.875 355.938 36.5 353.5C37.16 353.5 36.3201 353 37.0001 353C36.9537 351.742 36.9073 350.484 36.8595 349.187C36.5699 337.704 37.6444 327.997 41.0001 317C41.3435 315.669 41.6825 314.337 42.0001 313C42.6601 313 43.3201 313 44.0001 313C44.2592 312.116 44.5183 311.231 44.7853 310.32C47.7199 302.3 54.023 295.775 59.6876 289.5C60.3642 288.744 60.3642 288.744 61.0545 287.972C63.7949 285.008 66.5123 282.993 70.0001 281C71.3584 279.354 72.6926 277.687 74.0001 276C76.2501 274.187 76.2501 274.187 78.0001 273C77.6495 272.381 77.2988 271.762 76.9376 271.125C76.6282 270.424 76.3188 269.722 76.0001 269C76.3301 268.34 76.6601 267.68 77.0001 267C76.4881 264.968 76.4881 264.968 75.6251 262.75C71.4378 250.723 71.9644 238.405 77.5118 226.852C83.1203 216.845 89.7406 209.922 98.7423 202.883C101.067 201.2 101.067 201.2 102 199C103.155 198.691 104.31 198.381 105.5 198.062C106.655 197.712 107.81 197.361 109 197C110.315 194.178 110.315 194.178 109.223 192.246C108.84 191.649 108.457 191.052 108.063 190.437C106 187.186 106 187.186 106 185C105.423 184.917 104.595 184.585 104 184.5C101.134 183.545 104.001 182.215 102 180C103.32 179.67 100.64 179.34 102 179C101.505 177.855 101.505 177.855 101 176.687C100 174 100 174 100 171C99.3401 170.67 98.6801 170.34 98.0001 170C97.3557 167.172 96.9768 164.339 96.5626 161.469C96.2842 160.247 96.2842 160.247 96.0001 159C95.3401 158.67 94.6801 158.34 94.0001 158C94.0001 155.667 94.0001 153.333 94.0001 151C93.3401 150.01 94.6801 149.52 94.0001 148.5C94.9901 148.17 93.9801 147.34 95.0001 147C95.0259 146.201 95.0517 145.402 95.0782 144.578C95.7385 131.793 98.8707 121.971 107 112C107.75 111.045 107.75 111.045 108.516 110.07C115.151 102.53 126.21 97.6316 136 96C136.706 95.8685 137.413 95.737 138.141 95.6015C155.325 93.041 175.798 98.7228 189 110ZM103 181C104 183 104 183 104 183L103 181ZM39.5 355C40.5 358 38.0001 357 38.0001 357L39.5 355Z" fill="#0B0B0B"/>
<path d="M485 103C490.195 112.061 487.793 127.415 485.375 137.188C483.017 144.791 479.397 151.405 475 158C475.66 158.248 476.32 158.495 477 158.75C479.997 159.999 482.798 161.446 485.645 163C498.944 168.646 515.165 167.459 528.453 162.473C542.925 156.464 554.459 147.652 561.155 133.113C563.869 126.326 565.422 119.118 567 112C570 114 570 114 570.404 115.993C570.414 116.802 570.424 117.611 570.434 118.445C570.445 119.35 570.457 120.254 570.469 121.185C570.459 122.155 570.448 123.126 570.438 124.125C570.429 125.119 570.42 126.113 570.41 127.137C569.975 145.879 563.454 162.966 550.047 176.277C534.21 190.968 514.571 195.714 493.484 195.305C480.16 194.751 469.318 189.614 458 183C458.598 182.056 458.598 182.056 459.207 181.094C462.46 175.839 465.046 170.863 467 165C465.983 165.853 465.983 165.853 464.945 166.723C440.72 186.821 416.425 195.597 384.71 192.798C365.808 190.272 348.417 180.136 335 167C333.925 165.948 333.925 165.948 332.828 164.875C331.204 163.264 329.594 161.641 328 160C331.771 176.235 341.814 188.85 355.563 197.938C357.357 198.99 359.169 200.013 361 201C361.848 201.459 362.697 201.918 363.57 202.391C382.47 211.756 406.725 213.756 426.844 207.203C428.406 206.608 428.406 206.608 430 206C431.083 205.603 432.166 205.206 433.281 204.797C438.695 202.68 443.52 200.305 448.184 196.82C450.863 195.61 452.207 196.114 455 197C457.473 198.207 459.89 199.451 462.313 200.75C475.091 207.332 487.724 210.626 502 212C504.178 218.833 504.509 225.361 504.59 232.498C504.614 233.92 504.655 235.342 504.713 236.763C505.198 248.525 505.198 248.525 502.414 251.952C500.321 253.288 498.332 254.158 496 255C494.88 255.597 493.76 256.194 492.606 256.809C441.133 281.339 375.355 280.969 321.996 262.301C297.607 253.333 297.607 253.333 293 247C292.714 244.377 292.603 241.996 292.637 239.375C292.636 238.26 292.636 238.26 292.635 237.123C292.638 235.552 292.647 233.982 292.664 232.412C292.688 230.009 292.684 227.607 292.678 225.203C292.683 223.677 292.691 222.151 292.699 220.625C292.698 219.906 292.697 219.187 292.697 218.447C292.749 214.754 292.897 213.155 295 210C296.98 209.204 296.98 209.204 299.402 208.605C300.288 208.375 301.173 208.145 302.086 207.908C303.027 207.67 303.968 207.433 304.938 207.188C316.022 204.197 325.252 200.795 333 192C327.748 192.442 322.593 193.047 317.41 194.016C295.015 197.79 273.413 194.999 254.371 182.238C252.159 180.572 250.069 178.84 248 177C247.399 176.481 246.799 175.961 246.18 175.426C236.842 166.779 231.583 156.05 228 144C227.742 143.152 227.484 142.304 227.219 141.43C225.784 136.012 226.124 131.522 227 126C228.196 128.345 229.32 130.705 230.41 133.102C236.639 146.384 246.012 157.886 259.66 164.156C274.171 169.389 291.424 170.321 305.845 164.219C313.368 160.788 313.368 160.788 319 155C318.674 154.406 318.348 153.811 318.012 153.199C311.943 141.689 309.823 130.244 309.813 117.312C309.8 116.471 309.788 115.63 309.775 114.764C309.774 113.951 309.772 113.138 309.77 112.301C309.766 111.57 309.761 110.84 309.757 110.087C310.035 107.701 310.819 106.075 312 104C312.485 105.027 312.969 106.055 313.469 107.113C317.596 115.708 321.945 123.573 328 131C329.031 132.276 329.031 132.276 330.082 133.578C344.689 150.738 368.443 162.874 391 165C415.795 166.405 438.673 160.466 457.739 144.105C470.468 132.69 478.883 118.904 485 103Z" fill="#D0D0CF"/>
<path d="M629.5 262.812C642.766 265.348 653.337 276.412 660.714 287.106C670.675 302.282 675.255 318.981 671.812 336.938C670.342 343.391 668.03 349.131 665 355C676.471 345.997 683.843 334.771 686 320C687.268 302.714 682.679 289.229 675 274C691.558 280.183 703.04 293.13 710.348 308.91C714.081 317.997 716.004 327.856 712.875 337.5C710.796 341.381 708.472 343.474 705 346C698.054 351.408 698.054 351.408 694 359C693.781 362.682 693.823 366.317 694 370C694.516 369.134 695.031 368.267 695.562 367.375C699.609 361.347 705.048 357.157 712 355C717.409 354.403 721.923 354.917 727 357C727.393 350.292 726.63 344.747 724.559 338.348C724 336 724 336 725 333C725.577 333.784 726.155 334.567 726.75 335.375C729.394 338.479 729.394 338.479 733 340C737.075 339.913 738.669 339.279 741.812 336.625C746.297 331.244 745.547 324.682 745 318C743.402 311.546 740.834 307.431 736 303C736 302.01 736 301.02 736 300C740.225 302.653 743.534 305.369 747 309C747.965 309.934 747.965 309.934 748.949 310.887C752.883 314.705 756.117 318.343 759 323C759.66 323.66 760.32 324.32 761 325C764.341 331.168 766.546 337.158 767.543 344.102C767.769 345.041 767.769 345.041 768 346C768.66 346.33 769.32 346.66 770 347C771.106 363.093 772.05 377.468 765.121 392.477C764.14 394.686 763.38 396.617 763 399C763.33 399.66 763.66 400.32 764 401C762.68 401 761.36 401 760 401C760.66 401.33 761.32 401.66 762 402C762.289 402.969 759.702 402.501 760 403.5C760.749 406.645 763.624 408.083 765.82 408.859C768.821 410.43 770.081 412.543 772 415.312C773.954 418.11 775.856 420.832 778.078 423.422C784.619 432.196 786.343 444.402 785 455C783.658 460.75 781.789 465.944 778.625 470.938C776.665 473.847 776.665 473.847 777.562 476.75C779.697 480.09 781.692 481.794 785 484C785.699 485.316 786.367 486.65 787 488C787.66 488.66 788.32 489.32 789 490C789.33 490.99 789.66 491.98 790 493C791.259 495.748 792.55 498.48 793.844 501.211C797.426 509.852 797.373 521.067 794.375 529.875C791.078 537.672 786.547 543.889 780.32 549.59C778.772 550.921 778.772 550.921 779 553C778.443 553.124 777.886 553.248 777.312 553.375C774.758 554.065 772.405 554.895 770 556C769.67 556.66 769.34 557.32 769 558C750.003 566.402 731.681 569.785 711 569C714.114 566.924 717.246 565.421 720.625 563.812C732.191 558.103 741.487 550.857 745.938 538.25C749.324 524.745 746.192 513.064 740 501C739.83 502.169 739.66 503.338 739.484 504.543C739.24 506.091 738.996 507.639 738.75 509.188C738.64 509.956 738.531 510.725 738.418 511.518C737.506 517.112 735.947 520.79 731.25 524.312C726.644 525.72 722.561 525.659 718.188 523.812C715.502 521.587 714.26 520.29 713 517C712.58 509.836 714.51 504.502 719 499C722.134 495.525 725.4 492.258 729.082 489.363C735.973 483.922 740.232 477.296 741.508 468.5C741.793 459.836 739.85 452.7 736 445C735.974 445.652 735.948 446.305 735.922 446.977C735.549 452.721 734.936 456.532 731 461C727.725 463.766 725.681 464.892 721.438 465.562C718 465 718 465 715 463C712.9 459.85 712.309 458.102 713.02 454.359C714.798 450.079 717.916 446.691 720.766 443.074C725.751 436.215 727.845 428.727 727.602 420.266C726.599 414.822 724.169 410.13 721.629 405.25C718.805 399.616 717.81 393.898 719.684 387.762C721.987 382.227 725.219 377.625 729 373C719.714 374.146 711.958 377.426 705.562 384.438C699.383 392.542 699.186 399.942 700 410C700.654 412.337 701.32 414.67 702 417C702.59 422.822 702.736 428.145 700.562 433.625C697.03 436.899 693.58 437.756 689 439C681.909 441.124 677.131 442.665 673 449C670.72 453.56 671.765 459.046 672.938 463.812C675.013 468.829 678.583 472.96 681.941 477.168C685.049 481.443 686.302 484.72 686 490C685.34 490.33 684.68 490.66 684 491C683.5 490.255 683 489.51 682.484 488.742C679.408 485.346 676.372 483.971 672.25 482.125C663.126 477.788 656.476 473.31 652 464C649.776 457.329 650.398 451.498 653.312 445.125C655.812 440.482 658.857 436.771 662.5 433C669.893 425.299 674.25 418.247 674.688 407.375C674.297 399.244 672.566 393.414 666.617 387.719C662.616 384.422 658.475 381.613 654 379C654.349 379.759 654.699 380.519 655.059 381.301C655.741 382.792 655.741 382.792 656.438 384.312C657.116 385.792 657.116 385.792 657.809 387.301C661.065 394.679 660.97 402.3 658.094 409.836C654.211 417.518 648.063 422.204 640 425C637.67 425.354 635.337 425.69 633 426C633.111 424.957 633.221 423.915 633.335 422.84C634.38 412.984 635.424 403.127 636.469 393.27C637.005 388.204 637.542 383.137 638.079 378.07C638.598 373.175 639.117 368.28 639.635 363.384C639.833 361.522 640.03 359.661 640.228 357.799C645.003 331.993 645.003 331.993 640.328 307.57C635.518 301.883 629.936 297.622 622.374 296.669C619.435 296.484 616.506 296.38 613.562 296.312C612.545 296.278 611.527 296.244 610.479 296.209C607.986 296.127 605.493 296.058 603 296C606.162 287.486 611.702 280.222 617.188 273.062C617.603 272.519 618.019 271.976 618.447 271.416C624.954 263.056 624.954 263.056 629.5 262.812Z" fill="#0A0B0B"/>
<path d="M672.249 108.416C674.634 109.691 677.065 110.863 679.5 112.04C683.243 113.901 686.735 116.023 690.246 118.286C692.405 119.598 694.621 120.512 697 121.352C703.533 124.618 709.745 128.59 716 132.352C717.035 132.968 718.07 133.584 719.137 134.219C725.743 138.448 730.343 143.828 732.633 151.461C735.1 164.165 726.887 175.52 720.625 185.915C719.874 187.176 719.124 188.439 718.375 189.702C716.262 193.259 714.131 196.806 712 200.352C711.447 201.279 710.894 202.207 710.324 203.162C705.554 211.154 700.577 219.009 695.58 226.861C694.028 229.308 692.49 231.763 690.953 234.219C689.99 235.743 689.026 237.266 688.062 238.79C687.627 239.493 687.191 240.196 686.741 240.921C682.816 247.078 678.619 250.671 671.586 252.821C665.247 254.123 658.76 253.599 652.375 252.852C647.544 252.327 642.73 252.134 637.875 252.04C637.123 252.01 636.37 251.98 635.595 251.95C628.897 251.879 623.911 253.858 618.82 258.219C615.558 262.083 612.448 266.016 609.494 270.124C608.653 271.292 607.799 272.453 606.933 273.604C604.461 276.97 602.59 280.164 600.996 284.032C598.545 289.322 596.322 293.579 591 296.352C579.165 299.033 565.973 297.36 554 296.352C557.657 289.475 561.51 282.821 565.75 276.29C569.87 269.846 573.83 263.341 577.562 256.665C578.17 255.588 578.17 255.588 578.79 254.49C583.143 246.598 586.34 239.564 585 230.352C583.824 226.573 582.25 223.052 580.562 219.477C579.728 217.647 578.896 215.817 578.066 213.985C577.695 213.19 577.323 212.394 576.94 211.575C574.848 206.626 574.006 201.668 575 196.352C577.002 191.584 579.384 187.069 581.84 182.522C583.339 179.774 583.457 179.511 587.438 171.54C587.779 170.864 588.121 170.188 588.473 169.492C589.827 166.802 591.046 164.215 592 161.352C592.671 160.691 592.671 160.691 593.355 160.016C595.524 157.822 596.811 155.421 598.32 152.731C598.938 151.631 599.555 150.531 600.191 149.397C601.149 147.673 601.149 147.673 602.125 145.915C602.771 144.769 603.417 143.624 604.082 142.444C607.336 137.037 607.336 137.037 609.503 131.18C610.134 128.857 611.273 127.993 613 126.352C614.122 124.525 614.122 124.525 615.086 122.516C615.46 121.781 615.834 121.047 616.219 120.29C616.985 118.757 617.748 117.223 618.508 115.688C621.565 109.7 625.094 105.275 630.875 101.665C631.491 101.269 632.107 100.873 632.742 100.465C646.15 93.8543 660.245 101.925 672.249 108.416Z" fill="#0B0C0C"/>
<path d="M344.375 215.687C374.05 229.203 408.879 230.938 440.32 222.922C448.613 220.844 454.948 222.63 463.012 224.91C468.941 226.571 474.968 227.773 481 229C481.921 240.395 479.204 250.164 476 261C476.99 261.33 477.98 261.66 479 262C472.45 264.797 466.003 266.975 459.062 268.562C458.159 268.772 457.255 268.982 456.323 269.198C442.007 272.439 427.688 274.601 413 275C412.22 275.022 411.439 275.044 410.635 275.066C386.704 275.629 362.643 273.423 339.438 267.437C338.621 267.228 337.805 267.018 336.964 266.801C331.254 265.254 331.254 265.254 329 263C329 261.68 329 260.36 329 259C328.307 256.897 327.547 254.816 326.75 252.75C322.618 241.468 319.511 230.07 319 218C320.847 217.151 322.703 216.321 324.562 215.5C326.111 214.804 326.111 214.804 327.691 214.094C334.05 211.992 338.446 212.838 344.375 215.687Z" fill="#FDFDFD"/>
<path d="M167.336 121.816C183.35 131.278 194.201 144.691 201 162C201.321 162.803 201.642 163.606 201.973 164.434C204.046 170.616 204.336 176.722 204.438 183.188C204.46 184.031 204.482 184.875 204.505 185.744C204.484 191.62 203.327 196.102 200 201C193.993 206.578 188.57 206.572 180.731 206.402C162.985 205.383 147.591 193.095 135.848 180.734C125.814 169.102 120.401 154.793 120.696 139.473C121.43 131.099 124.419 125.753 130.805 120.375C141.556 113.641 156.753 116.054 167.336 121.816Z" fill="#0A0B0B"/>
<path d="M110 195C113.251 196.395 115.074 197.968 117.313 200.688C117.928 201.406 118.542 202.124 119.176 202.863C119.778 203.568 120.38 204.274 121 205C130.719 216.36 143.792 222.679 157.395 228.129C185.511 239.398 196.416 261.002 208 288C196.545 284.062 188.235 270.47 183 260C165.659 264.206 153.454 275.494 144.044 290.255C141.427 294.629 139.598 299.175 138 304C137.683 304.906 137.366 305.812 137.039 306.746C132.771 320.863 134.467 335.928 138 350C130.094 344.484 126.671 336.362 125 327C122.824 305.251 129.145 288.675 142.938 271.812C143.689 270.932 144.441 270.052 145.215 269.145C148.36 265.366 148.316 262.898 148 258C145.472 247.72 137.729 240.643 129.043 235.059C127.026 234.013 125.221 233.444 123 233C123.482 233.664 123.964 234.328 124.461 235.012C125.093 235.895 125.724 236.778 126.375 237.688C127.002 238.558 127.628 239.428 128.274 240.324C132.062 246.196 132.771 251.139 132 258C130.336 264.909 127.996 271.56 125 278C123.513 275.181 122.454 272.39 121.438 269.375C118.094 260.972 111.514 255.26 104.813 249.438C98.1071 243.514 93.1049 237.059 92.0002 228C91.9061 227.241 91.812 226.481 91.715 225.699C91.1698 216.933 94.795 209.194 99.3752 201.875C102.452 198.506 104.61 197.929 109 197C109.33 196.34 109.66 195.68 110 195Z" fill="#FAFAFB"/>
<path d="M211 546C337.06 546 463.12 546 593 546C593 548.64 593 551.28 593 554C573.277 554.824 553.59 555.148 533.851 555.131C529.981 555.128 526.111 555.132 522.241 555.135C514.704 555.139 507.167 555.138 499.629 555.135C493.491 555.133 487.353 555.133 481.214 555.134C479.892 555.134 479.893 555.134 478.544 555.134C476.753 555.135 474.962 555.135 473.171 555.135C456.461 555.138 439.752 555.135 423.042 555.129C408.776 555.125 394.51 555.126 380.243 555.13C363.586 555.136 346.929 555.138 330.272 555.135C328.488 555.134 326.704 555.134 324.92 555.134C324.042 555.134 323.165 555.134 322.261 555.133C316.147 555.132 310.033 555.134 303.919 555.136C296.443 555.139 288.968 555.138 281.492 555.133C277.695 555.13 273.898 555.129 270.101 555.133C255.071 555.145 240.053 555.026 225.031 554.554C223.733 554.516 222.436 554.477 221.099 554.437C219.326 554.375 219.326 554.375 217.517 554.312C216.473 554.276 215.428 554.24 214.352 554.203C212 554 212 554 211 553C211 550.69 211 548.38 211 546Z" fill="#FCFCFC"/>
<path d="M614 494C634.391 495.291 653.68 500.542 668 516C674.001 523.185 675.554 528.43 675.371 537.754C674.846 542.346 673.3 546.026 671 550C670.67 550 670.34 550 670 550C669.853 549.189 669.706 548.378 669.555 547.543C667.313 536.474 663.57 527.55 655 520C655.157 520.674 655.315 521.348 655.477 522.043C656.746 529.215 657.703 538.184 653.875 544.688C650.005 549.713 645.111 552.472 639 554C635.625 554.125 635.625 554.125 633 554C633.597 553.238 633.597 553.238 634.207 552.461C641.273 543.281 644.251 535.676 643 524C640.764 516.822 636.947 512.431 631 508C631.351 508.784 631.701 509.567 632.062 510.375C633.617 516.385 633.086 521.697 630.438 527.312C624.295 534.085 617.877 535.813 609 537C609.618 527.335 610.739 517.776 612.062 508.188C612.251 506.801 612.439 505.415 612.627 504.029C613.081 500.686 613.539 497.343 614 494Z" fill="#FAFAFA"/>
<path d="M714 226C723.284 228.953 730.292 238.001 734.645 246.367C739.975 257.276 742.535 269.029 738.953 281.02C737.731 284.396 736.397 287.693 735 291C733.512 294.913 733.512 294.913 733 299C732.01 299 731.02 299 730 299C730.311 300.75 730.624 302.5 730.938 304.25C731.112 305.225 731.286 306.199 731.465 307.203C731.904 309.497 732.403 311.743 733 314C722.127 311.242 713.611 305.024 707 296C704.856 292.356 703.5 289.196 703 285C702.856 283.824 702.711 282.649 702.562 281.438C702.666 273.623 707.945 266.401 712.25 260.188C717.405 252.617 717.729 244.958 717 236C716.241 232.561 715.248 229.291 714 226Z" fill="#0B0C0C"/>
<path d="M186 494C186.575 498.856 187.144 503.712 187.709 508.569C187.901 510.219 188.095 511.869 188.291 513.518C188.573 515.898 188.849 518.279 189.125 520.66C189.212 521.39 189.3 522.119 189.39 522.871C189.894 527.28 190.081 531.562 190 536C182.336 535.645 176.045 534.206 170.625 528.5C167.832 524.204 166.749 521.58 166.875 516.375C166.893 515.413 166.911 514.452 166.93 513.461C166.953 512.649 166.976 511.837 167 511C167 510.34 167 509.68 167 509C161.187 514.167 157.598 520.41 156.762 528.227C156.518 536.106 158.493 542.396 163 548.875C164.962 550.96 166.939 553.013 169 555C160.087 553.902 153.307 552.155 147.562 544.937C145.479 541.02 144.86 537.914 144.875 533.5C144.871 532.371 144.871 532.371 144.867 531.219C144.998 529.026 145.397 527.107 146 525C138.641 531.307 135.658 539.654 134 549C130.701 545.914 129.184 544.009 128.762 539.398C128.507 529.039 131.008 522.435 138.113 514.898C138.736 514.272 139.358 513.645 140 513C140.55 512.415 141.101 511.83 141.668 511.227C152.756 500.407 170.594 493.748 186 494Z" fill="#FAFAFA"/>
<path d="M124 414C124.639 414.639 125.279 415.279 125.938 415.938C126.394 416.393 126.85 416.848 127.32 417.316C128.57 418.569 129.814 419.828 131.055 421.09C134.636 424.715 138.212 428.233 142.125 431.5C149.894 438.232 155.971 446.407 157.379 456.797C157.645 463.002 156.82 468.004 153 473C150.473 475.527 147.821 477.809 145 480C144.01 479.505 144.01 479.505 143 479C143.495 478.01 143.99 477.02 144.5 476C146.301 471.865 146.235 468.468 146 464C145.743 464.629 145.487 465.258 145.223 465.906C140.51 476.442 133.406 481.422 123.395 486.645C120.334 488.377 118.639 489.871 117 493C116.424 495.703 116.188 498.228 116 501C111.119 496.514 108.388 492.909 107.5 486.25C107.995 477.226 113.345 471.38 119.562 465.438C124.96 460.273 129.349 455.784 130.221 448.031C130.351 441.404 128.808 435.528 127 429.188C126.433 427.161 125.87 425.134 125.312 423.105C125.061 422.22 124.81 421.335 124.551 420.423C124 418 124 418 124 414Z" fill="#090A0A"/>
<path d="M215 181C217.561 184.138 219.955 187.308 222.187 190.688C222.951 191.838 222.951 191.838 223.73 193.012C225.974 196.526 226.037 198.225 225.625 202.375C225.535 203.331 225.444 204.288 225.351 205.273C225.052 207.6 224.583 209.735 224 212C221.258 239.419 246.135 273.145 259 296C254.233 297.351 249.6 298.17 245 296C239.187 290.21 235.732 282.204 232 275C231.187 273.539 230.367 272.082 229.539 270.629C206.03 228.81 206.03 228.81 209 210C209.967 206.657 211.011 203.369 212.139 200.079C214.245 193.774 214.875 187.645 215 181Z" fill="#0A0A0A"/>
<path d="M75.9999 268C82.7609 270.254 87.7885 280.203 90.9374 286.312C95.5399 296.311 96.6338 306.072 93.1249 316.633C90.9789 321.148 87.541 325.729 82.9999 328C78.3971 328.384 75.9352 328.45 71.7499 326.438C66.8373 322.083 64.3703 316.977 63.7616 310.441C63.5511 302.276 65.3159 295.66 67.9999 288C68.25 287.116 68.5001 286.231 68.7577 285.32C70.1726 280.36 71.4915 277.89 75.9999 275C76.6599 274.34 77.3199 273.68 77.9999 273C77.6699 272.361 77.3399 271.721 76.9999 271.062C75.9999 269 75.9999 269 75.9999 268Z" fill="#FAFAFA"/>
<path d="M644 129.688C644.701 129.671 645.402 129.654 646.125 129.637C646.744 129.757 647.362 129.876 648 130C650.343 133.515 650.39 134.863 650 139C648.861 141.655 648.861 141.655 647.246 144.359C646.646 145.381 646.045 146.402 645.427 147.454C644.77 148.542 644.114 149.629 643.437 150.75C642.416 152.479 641.394 154.207 640.373 155.937C639.308 157.74 638.236 159.54 637.165 161.34C635.011 164.968 632.902 168.62 630.805 172.281C630.467 172.869 630.13 173.457 629.783 174.063C628.163 176.89 626.544 179.718 624.925 182.546C623.298 185.373 621.658 188.191 620 191C619.608 191.668 619.216 192.335 618.812 193.023C616.834 196.216 616.263 196.92 612.5 198.062C609 198 609 198 606.562 197C604.213 193.993 604.706 191.739 605 188C606.306 184.972 606.306 184.972 608.156 181.922C608.49 181.361 608.825 180.8 609.169 180.221C610.265 178.389 611.382 176.57 612.5 174.75C613.268 173.476 614.034 172.201 614.799 170.925C616.386 168.28 617.982 165.64 619.582 163.003C621.962 159.075 624.297 155.122 626.621 151.16C627.354 149.912 628.087 148.665 628.82 147.417C629.874 145.623 630.927 143.83 631.98 142.035C632.951 140.382 633.926 138.732 634.902 137.082C635.454 136.146 636.005 135.21 636.574 134.245C638.785 130.764 639.922 129.71 644 129.688Z" fill="#FAFAFA"/>
<path d="M51.0001 386C60.068 394.218 67.8027 405.073 68.5001 417.625C68.1797 423.777 65.8462 429.004 61.6876 433.5C58.2729 435.406 55.9209 436 52.0001 436C47.0242 433.756 45.0023 430.853 42.7618 426.098C39.3689 416.754 40.6045 407.83 44.0274 398.727C44.9457 396.152 45.5356 393.689 46.0001 391C46.6601 391 47.3201 391 48.0001 391C48.1857 390.041 48.1857 390.041 48.3751 389.062C48.5813 388.382 48.7876 387.701 49.0001 387C49.6601 386.67 50.3201 386.34 51.0001 386Z" fill="#FAFAFA"/>
<path d="M698.188 156.312C701 157 701 157 702.875 158.125C704.522 160.87 704.256 162.831 704 166C702.777 168.77 702.777 168.77 700.938 171.812C700.592 172.392 700.246 172.972 699.89 173.57C699.08 174.924 698.264 176.274 697.443 177.622C695.794 180.339 694.172 183.071 692.551 185.805C671.077 221.923 671.077 221.923 668 225C661.857 225.455 661.857 225.455 659 223.938C657.392 220.821 658.308 218.364 659 215C660.468 211.984 660.468 211.984 662.359 208.965C662.7 208.413 663.041 207.86 663.392 207.291C664.501 205.5 665.625 203.719 666.75 201.938C667.915 200.064 669.076 198.188 670.237 196.313C671.02 195.048 671.805 193.784 672.591 192.521C676.769 185.797 680.759 178.964 684.712 172.105C693.312 157.364 693.312 157.364 698.188 156.312Z" fill="#FAFAFA"/>
<path d="M676 144C678 147 678 147 677.83 150.309C676.966 154.148 675.757 156.712 673.718 160.063C673.046 161.182 672.373 162.301 671.679 163.455C670.953 164.637 670.227 165.818 669.5 167C668.762 168.219 668.025 169.438 667.289 170.659C665.847 173.046 664.399 175.43 662.945 177.81C660.964 181.058 659.008 184.321 657.063 187.591C656.035 189.316 654.992 191.033 653.949 192.75C652.558 195.069 651.213 197.391 649.894 199.75C649.544 200.359 649.194 200.968 648.834 201.596C647.883 203.252 646.95 204.919 646.019 206.586C644 209 644 209 640.91 209.914C638 210 638 210 635.625 209C633.19 206.003 633.696 203.779 634 200C635.322 197.032 635.322 197.032 637.191 194.07C637.882 192.956 638.573 191.843 639.284 190.695C640.043 189.505 640.803 188.315 641.562 187.125C642.334 185.892 643.103 184.659 643.871 183.424C645.055 181.522 646.24 179.62 647.432 177.723C650.133 173.417 652.771 169.079 655.363 164.707C655.705 164.131 656.047 163.555 656.399 162.962C658.025 160.221 659.646 157.478 661.264 154.733C661.844 153.758 662.425 152.782 663.023 151.777C663.528 150.924 664.032 150.07 664.552 149.191C667.862 144.181 669.83 143.327 676 144Z" fill="#FAFAFA"/>
<path d="M758 403C758.908 403.784 759.815 404.567 760.75 405.375C762.628 406.969 763.937 407.975 766.25 408.875C769.19 410.765 769.236 413.725 770 417C770.392 417.908 770.784 418.815 771.188 419.75C772.725 425.898 772.056 431.811 769.313 437.5C766.662 440.365 764.698 441.743 761 443C756.118 442.9 753.428 441.427 750 438C746.279 432.739 746.001 427.21 747 421C749.516 414.198 753.026 408.267 758 403Z" fill="#F9F9F9"/>
<path d="M24 471C24.3906 471.527 24.7812 472.054 25.1836 472.598C26.5718 474.434 27.9855 476.251 29.4102 478.059C29.8426 478.61 30.2751 479.161 30.7207 479.729C31.6148 480.867 32.5133 482.003 33.416 483.135C37.6687 488.582 39.5206 492.912 39.3945 499.777C38.7163 503.599 36.7741 505.358 34 508C30.7653 509.617 27.4966 509.578 24 509C20.728 507.278 18.5572 504.912 16.625 501.75C15.3652 496.207 15.58 490.502 17 485C16.34 484.67 15.68 484.34 15 484C18.7068 479.271 18.7068 479.271 20.625 477.5C22.4199 475.542 23.1268 473.485 24 471Z" fill="#FAFAFA"/>
<path d="M775 474C778 476 778 476 779.437 478.438C781.034 481.055 782.462 482.337 785 484C784.01 484.33 783.02 484.66 782 485C782.046 485.941 782.093 486.882 782.14 487.852C782.472 499.291 782.472 499.291 780.187 502.688C779.465 503.451 778.744 504.214 778 505C777.587 505.639 777.175 506.279 776.75 506.938C774.189 508.492 771.883 508.185 769.004 507.719C764.927 506.256 762.888 502.777 761 499C759.982 492.02 762.898 487.518 767 482C769.539 479.183 772.194 476.55 775 474Z" fill="#F6F7F7"/>
<path d="M513 265C512.591 274.404 507.019 281.496 500.418 287.82C499 289 499 289 498 289C498.764 280.743 499.905 272.095 506 266C508.463 264.769 510.28 264.928 513 265Z" fill="#F7F7F7"/>
<path d="M564 546C573.24 546 582.48 546 592 546C592 548.31 592 550.62 592 553C584.08 553 576.16 553 568 553C568.33 551.68 568.66 550.36 569 549C567.02 549 565.04 549 563 549C563.33 548.01 563.66 547.02 564 546Z" fill="#EDEDEC"/>
<path d="M211 546C214.083 545.913 217.166 545.86 220.25 545.813C221.123 545.787 221.995 545.762 222.895 545.736C229.416 545.662 229.416 545.662 232.609 547.512C233.068 548.003 233.527 548.494 234 549C233.34 549 232.68 549 232 549C231.67 550.32 231.34 551.64 231 553C227.855 553.196 224.709 553.38 221.563 553.563C220.665 553.619 219.767 553.675 218.842 553.732C217.988 553.781 217.134 553.829 216.254 553.879C215.463 553.926 214.672 553.973 213.858 554.022C212 554 212 554 211 553C210.959 550.667 210.958 548.333 211 546Z" fill="#EBEBEA"/>
<path d="M290 265C293.297 265.275 294.72 265.728 297.125 268.062C300.877 273.94 302.435 279.043 302 286C296.086 283.484 292.734 277.924 290.063 272.25C289.051 269.155 288.712 267.927 290 265Z" fill="#F6F5F6"/>
<path d="M544 291C544 294 544 294 543 296C522.87 296 502.74 296 482 296C482 295.34 482 294.68 482 294C485.13 292.957 487.259 292.891 490.541 292.918C491.676 292.925 492.81 292.931 493.979 292.938C495.817 292.955 495.817 292.955 497.691 292.973C500.27 292.985 502.849 292.998 505.428 293.01C509.505 293.034 513.583 293.062 517.661 293.096C521.588 293.128 525.515 293.144 529.441 293.16C530.668 293.174 531.896 293.187 533.16 293.201C534.857 293.206 534.857 293.206 536.588 293.211C537.587 293.219 538.586 293.226 539.616 293.234C542.187 293.236 542.187 293.236 544 291Z" fill="#010101"/>
<path d="M235 293C235.495 294.485 235.495 294.485 236 296C215.87 296 195.74 296 175 296C175.33 295.34 175.66 294.68 176 294C183.397 293.869 190.795 293.739 198.192 293.609C201.627 293.548 205.061 293.488 208.496 293.427C212.443 293.358 216.389 293.288 220.336 293.219C221.572 293.197 222.809 293.175 224.083 293.152C225.224 293.132 226.365 293.112 227.541 293.092C229.053 293.065 229.053 293.065 230.596 293.038C232.064 293.015 233.532 293 235 293Z" fill="#010101"/>
<path d="M313 288C313.66 288 314.32 288 315 288C316.32 290.64 317.64 293.28 319 296C302.17 296 285.34 296 268 296C267.67 295.34 267.34 294.68 267 294C282.84 294 298.68 294 315 294C314.34 292.02 313.68 290.04 313 288Z" fill="#010101"/>
<path d="M68 282C68.99 282.33 69.98 282.66 71 283C69.68 286.3 68.36 289.6 67 293C66.01 292.01 65.02 291.02 64 290C63.6133 290.482 63.2266 290.964 62.8281 291.461C62.3073 292.093 61.7866 292.724 61.25 293.375C60.7395 294.001 60.2291 294.628 59.7031 295.273C58 297 58 297 56 297.969C53.4756 299.27 52.3846 300.822 50.75 303.125C50.2292 303.849 49.7084 304.574 49.1719 305.32C48.7852 305.875 48.3984 306.429 48 307C48 299.189 58.788 290.337 64 285C66.082 283.148 66.082 283.148 68 282Z" fill="#202020"/>
<path d="M226 129C228.493 131.493 229.608 134.004 231.125 137.188C231.933 138.848 231.933 138.848 232.758 140.543C234.103 144.288 234.217 147.052 234 151C234 151.99 234 152.98 234 154C233.34 154.33 232.68 154.66 232 155C225.528 138.193 225.528 138.193 226 129Z" fill="#E0E0E0"/>
<path d="M331 173C333.569 175.372 335.66 177.858 337.688 180.688C344.471 189.805 352.415 196.048 362 202C361.01 202.33 360.02 202.66 359 203C356.512 201.523 356.512 201.523 353.688 199.375C352.763 198.681 351.839 197.988 350.887 197.273C349.934 196.523 348.981 195.773 348 195C347.002 194.22 346.005 193.44 344.977 192.637C341.771 189.797 339.254 186.843 336.688 183.438C336.246 182.874 335.804 182.31 335.35 181.729C333.203 178.917 331.462 176.563 331 173Z" fill="#E5E6E5"/>
<path d="M300 43C300.99 43.99 301.98 44.98 303 46C292.44 46 281.88 46 271 46C277.183 39.817 291.956 41.5148 300 43Z" fill="#141414"/>
<path d="M577 548C581.95 548 586.9 548 592 548C592 549.65 592 551.3 592 553C587.71 553 583.42 553 579 553C579 552.01 579 551.02 579 550C578.34 549.34 577.68 548.68 577 548Z" fill="#D3D2D3"/>
<path d="M589 115C589.33 115 589.66 115 590 115C590.963 126.356 591.007 136.752 589 148C587.258 144.997 586.779 143.005 586.988 139.551C587.035 138.702 587.082 137.853 587.131 136.979C587.191 136.099 587.251 135.219 587.312 134.312C587.361 133.452 587.409 132.592 587.459 131.705C587.792 126.111 588.34 120.564 589 115Z" fill="#181819"/>
<path d="M46 394C45.01 397.3 44.02 400.6 43 404C40.03 403.505 40.03 403.505 37 403C37 403.66 37 404.32 37 405C35.68 404.67 34.36 404.34 33 404C33.66 404 34.32 404 35 404C35.2578 403.407 35.5156 402.814 35.7812 402.203C37.0977 399.823 38.4258 398.49 40.5 396.75C41.1084 396.229 41.7169 395.708 42.3438 395.172C44 394 44 394 46 394Z" fill="#222222"/>
<path d="M181 221C185.277 221.494 188.125 223.995 191 227C194.428 231.423 197.61 235.928 200 241C195.403 239.194 193.011 235.92 190.75 231.625C188.514 228.271 185.733 226.013 182.645 223.453C182.102 222.974 181.559 222.494 181 222C181 221.67 181 221.34 181 221Z" fill="#111112"/>
<path d="M558 84C563.287 88.3808 565.434 93.7339 568 100C568.375 100.87 568.75 101.74 569.137 102.637C570.191 105.522 570.142 107.953 570 111C567.582 108.582 567.218 106.827 566.25 103.562C564.482 98.0121 562.11 93.1972 559.172 88.1797C558 86 558 86 558 84Z" fill="#050505"/>
<path d="M604 293C607.251 293.11 610.5 293.241 613.75 293.375C614.67 293.406 615.591 293.437 616.539 293.469C617.873 293.527 617.873 293.527 619.234 293.586C620.051 293.617 620.868 293.649 621.71 293.681C624.168 294.023 625.858 294.774 628 296C624.915 297.028 623.103 297.046 619.895 296.879C618.912 296.831 617.929 296.782 616.916 296.732C615.38 296.648 615.38 296.648 613.812 296.562C612.777 296.51 611.741 296.458 610.674 296.404C608.116 296.275 605.558 296.14 603 296C603.33 295.01 603.66 294.02 604 293Z" fill="#020302"/>
<path d="M213 548C217.95 548 222.9 548 228 548C228 548.33 228 548.66 228 549C226.02 549 224.04 549 222 549C222.33 549.99 222.66 550.98 223 552C219.7 552.33 216.4 552.66 213 553C213 551.35 213 549.7 213 548Z" fill="#D6D6D5"/>
<path d="M234 548C233.01 548.495 233.01 548.495 232 549C231.67 550.32 231.34 551.64 231 553C226.71 553 222.42 553 218 553C219.32 552.34 220.64 551.68 222 551C222 550.34 222 549.68 222 549C226.064 548.226 229.864 547.902 234 548Z" fill="#E6E5E5"/>
<path d="M560 162C560.66 162 561.32 162 562 162C561.75 164.875 561.75 164.875 561 168C559.678 168.689 558.343 169.353 557 170C555.174 171.799 555.174 171.799 553.5 173.875C551.102 176.711 548.682 179.425 546 182C545.34 181.67 544.68 181.34 544 181C544.66 180.361 545.32 179.721 546 179.062C548.449 176.607 550.798 174.071 553.125 171.5C553.788 170.768 554.45 170.036 555.133 169.281C557.093 167.01 557.093 167.01 558.617 164.219C559.074 163.487 559.53 162.754 560 162Z" fill="#050506"/>
<path d="M79 565C82.5578 565.61 85.6829 566.578 89 568C89 568.33 89 568.66 89 569C81.41 569 73.82 569 66 569C66 568.67 66 568.34 66 568C69.96 568 73.92 568 78 568C78.33 567.01 78.66 566.02 79 565Z" fill="#313131"/>
<path d="M781 484C784.582 485.791 786.469 487.016 789 490C789 490.99 789 491.98 789 493C788.01 493 787.02 493 786 493C785.67 492.34 785.34 491.68 785 491C784.34 491 783.68 491 783 491C782.67 492.32 782.34 493.64 782 495C781.67 491.37 781.34 487.74 781 484Z" fill="#303030"/>
<path d="M197 125C197.66 125 198.32 125 199 125C199.33 129.29 199.66 133.58 200 138C197.5 135.75 197.5 135.75 195 133C195 131.68 195 130.36 195 129C195.66 129 196.32 129 197 129C197 127.68 197 126.36 197 125Z" fill="#181717"/>
<path d="M400.312 1.43749C401.423 1.5158 401.423 1.5158 402.557 1.59569C404.372 1.72449 406.186 1.86142 408 1.99999C408 2.32999 408 2.65999 408 2.99999C400.662 4.17401 393.418 4.09376 386 3.99999C386.33 3.33999 386.66 2.67999 387 1.99999C391.397 0.596093 395.783 1.08535 400.312 1.43749Z" fill="#161515"/>
<path d="M122 577C124.375 577.312 124.375 577.312 127 578C127.66 578.99 128.32 579.98 129 581C127.68 581.33 126.36 581.66 125 582C125 581.34 125 580.68 125 580C121.882 580.646 121.882 580.646 121 583C116.25 582.25 116.25 582.25 114 580C116.64 579.34 119.28 578.68 122 578C122 577.67 122 577.34 122 577Z" fill="#393838"/>
<path d="M24 471C24.99 472.32 25.98 473.64 27 475C26.2575 475.722 25.515 476.444 24.75 477.188C22.3071 479.686 20.1319 482.236 18 485C17.01 484.67 16.02 484.34 15 484C18.7068 479.271 18.7068 479.271 20.625 477.5C22.4199 475.542 23.1268 473.485 24 471Z" fill="#868686"/>
<path d="M768 413C771.798 414.266 772.9 415.625 775 419C774.75 422.312 774.75 422.312 774 425C773.34 425 772.68 425 772 425C771.326 423.566 770.661 422.127 770 420.688C769.629 419.887 769.257 419.086 768.875 418.262C768 416 768 416 768 413Z" fill="#2C2C2D"/>
<path d="M646 273C653.522 276.391 658.053 282.997 662 290C658.245 288.5 656.439 286.365 654 283.188C653.01 281.909 653.01 281.909 652 280.605C651.34 279.746 650.68 278.886 650 278C648.67 276.331 647.338 274.663 646 273Z" fill="#030303"/>
<path d="M485 103C486.722 105.991 487.242 108.107 487.195 111.547C487.189 112.391 487.182 113.236 487.176 114.105C487.159 114.978 487.142 115.851 487.125 116.75C487.116 117.638 487.107 118.526 487.098 119.441C487.074 121.628 487.041 123.814 487 126C486.67 126 486.34 126 486 126C485.67 121.05 485.34 116.1 485 111C484.34 111 483.68 111 483 111C483.875 104.125 483.875 104.125 485 103Z" fill="#C0C0C0"/>
<path d="M610 131C610.66 131.33 611.32 131.66 612 132C611.34 133.98 610.68 135.96 610 138C609.34 138 608.68 138 608 138C607.691 138.949 607.381 139.897 607.062 140.875C606 144 606 144 605 146C604.34 146 603.68 146 603 146C604.545 140.521 607.155 135.886 610 131Z" fill="#141515"/>
<path d="M577 548C579.31 548.33 581.62 548.66 584 549C584 549.66 584 550.32 584 551C586.31 551.33 588.62 551.66 591 552C591 552.33 591 552.66 591 553C587.04 553 583.08 553 579 553C579 552.01 579 551.02 579 550C578.34 549.34 577.68 548.68 577 548Z" fill="#DFDEDE"/>
<path d="M631 264C635.349 264.564 638.178 266.154 641.812 268.562C643.276 269.523 643.276 269.523 644.77 270.504C645.506 270.998 646.242 271.491 647 272C644 273 644 273 642.133 272.109C641.47 271.661 640.808 271.212 640.125 270.75C639.426 270.286 638.728 269.822 638.008 269.344C637.014 268.679 637.014 268.679 636 268C635.01 267.423 634.02 266.845 633 266.25C632.34 265.838 631.68 265.425 631 265C631 264.67 631 264.34 631 264Z" fill="#121213"/>
<path d="M714 226C717.914 227.269 719.791 228.512 722 232C720.02 232.33 718.04 232.66 716 233C715.34 230.69 714.68 228.38 714 226Z" fill="#18191A"/>
<path d="M447 14C451.972 15.7643 456.434 18.3939 461 21C460.01 21.66 459.02 22.32 458 23C457.092 22.3813 456.185 21.7625 455.25 21.125C452.233 19.0381 452.233 19.0381 449.688 17.9375C448 17 448 17 447 14Z" fill="#181818"/>
<path d="M675 274C680 276 680 276 682 278C682.125 281.125 682.125 281.125 682 284C681.34 284 680.68 284 680 284C678.35 280.7 676.7 277.4 675 274Z" fill="#121313"/>
<path d="M690 574C691.65 574 693.3 574 695 574C695 574.33 695 574.66 695 575C697.97 575.33 700.94 575.66 704 576C704 576.33 704 576.66 704 577C699.591 578.102 695.516 578.077 691 578C690.67 576.68 690.34 575.36 690 574Z" fill="#010101"/>
<path d="M630 314C630.66 314 631.32 314 632 314C633.322 316.645 633.097 318.678 633.062 321.625C633.053 322.628 633.044 323.631 633.035 324.664C633.024 325.435 633.012 326.206 633 327C630.624 324.624 630.66 323.757 630.375 320.5C630.3 319.706 630.225 318.912 630.148 318.094C630.052 316.732 630 315.365 630 314Z" fill="#101011"/>
<path d="M565 104C565.99 104.33 566.98 104.66 568 105C569.617 108.676 569.065 113.072 569 117C568.01 116.67 567.02 116.34 566 116C565.67 112.04 565.34 108.08 565 104Z" fill="#E9E9E8"/>
<path d="M772 430C773.153 433.458 772.908 433.931 771.375 437.062C769.831 440.005 769.254 440.862 766.25 442.5C765.507 442.665 764.765 442.83 764 443C764 442.34 764 441.68 764 441C764.763 440.257 765.526 439.515 766.312 438.75C769.026 435.973 770.442 433.526 772 430Z" fill="#040404"/>
<path d="M223 256C223.66 256 224.32 256 225 256C225 256.66 225 257.32 225 258C225.66 258 226.32 258 227 258C227.99 261.3 228.98 264.6 230 268C229.34 268 228.68 268 228 268C227.162 266.378 226.33 264.752 225.5 263.125C225.036 262.22 224.572 261.315 224.094 260.383C223 258 223 258 223 256Z" fill="#131414"/>
<path d="M124 312C124.33 312 124.66 312 125 312C125 315.96 125 319.92 125 324C124.01 324.33 123.02 324.66 122 325C121.946 323.396 121.907 321.792 121.875 320.188C121.852 319.294 121.829 318.401 121.805 317.48C122 315 122 315 124 312Z" fill="#343636"/>
<path d="M412 3C418.93 3.495 418.93 3.495 426 4C425.67 4.66 425.34 5.32 425 6C420.709 7.09771 417.308 6.92312 413 6C412.67 5.01 412.34 4.02 412 3Z" fill="#222222"/>
<path d="M48 379C52.875 383.625 52.875 383.625 54 387C51.1156 385.707 49.1278 384.341 47 382C46.34 382.99 45.68 383.98 45 385C45.375 382.562 45.375 382.562 46 380C46.66 379.67 47.32 379.34 48 379Z" fill="#303031"/>
<path d="M576 174C576.33 174.99 576.66 175.98 577 177C575.566 179.262 575.566 179.262 573.562 181.688C572.904 182.496 572.245 183.304 571.566 184.137C571.049 184.752 570.533 185.366 570 186C569.34 185.34 568.68 184.68 568 184C568.41 183.529 568.82 183.059 569.242 182.574C569.781 181.952 570.32 181.329 570.875 180.688C571.409 180.073 571.942 179.458 572.492 178.824C574.164 176.865 574.164 176.865 576 174Z" fill="#141414"/>
<path d="M3 531C3.66 531 4.32 531 5 531C5 531.66 5 532.32 5 533C5.99 533.33 6.98 533.66 8 534C9.1875 536.562 9.1875 536.562 10 539C9.01 539 8.02 539 7 539C6.67 538.34 6.34 537.68 6 537C5.01 537.495 5.01 537.495 4 538C3.67 535.69 3.34 533.38 3 531Z" fill="#2A292A"/>
<path d="M96 205C96.66 205.33 97.32 205.66 98 206C95.8938 208.949 93.6061 211.484 91 214C90.01 213.67 89.02 213.34 88 213C90.6667 210.333 93.3333 207.667 96 205Z" fill="#444545"/>
<path d="M273 45C272.34 45 271.68 45 271 45C271 45.66 271 46.32 271 47C269.545 47.3891 268.086 47.7609 266.625 48.125C265.813 48.3338 265.001 48.5426 264.164 48.7578C263.45 48.8377 262.736 48.9176 262 49C261.34 48.34 260.68 47.68 260 47C261.601 46.4684 263.206 45.9501 264.812 45.4375C265.706 45.1474 266.599 44.8574 267.52 44.5586C270 44 270 44 273 45Z" fill="#1D1E1E"/>
<path d="M794 504C794.33 504 794.66 504 795 504C796.056 508.283 796.117 512.43 796.062 516.812C796.058 517.505 796.053 518.198 796.049 518.912C796.037 520.608 796.019 522.304 796 524C795.67 524 795.34 524 795 524C794.909 522.627 794.909 522.627 794.816 521.227C794.733 520.038 794.649 518.85 794.562 517.625C794.481 516.442 794.4 515.258 794.316 514.039C794.189 511.085 794.189 511.085 793 509C793.279 507.323 793.608 505.654 794 504Z" fill="#292827"/>
<path d="M162 389C162.66 389 163.32 389 164 389C164 392.3 164 395.6 164 399C163.01 398.01 162.02 397.02 161 396C161.312 392.312 161.312 392.312 162 389Z" fill="#111110"/>
<path d="M616 121C616.66 121.33 617.32 121.66 618 122C617.408 123.318 616.801 124.629 616.188 125.938C615.851 126.668 615.515 127.399 615.168 128.152C614 130 614 130 611 131C610.67 130.34 610.34 129.68 610 129C610.433 128.608 610.866 128.216 611.312 127.812C613.264 125.717 614.59 123.484 616 121Z" fill="#141515"/>
<path d="M207 118C207.33 118 207.66 118 208 118C208.286 125.429 208.286 125.429 206 129C205.34 129 204.68 129 204 129C204 128.34 204 127.68 204 127C204.66 127 205.32 127 206 127C206 126.34 206 125.68 206 125C205.34 124.67 204.68 124.34 204 124C204.99 122.02 205.98 120.04 207 118Z" fill="#363536"/>
<path d="M144 527C144.33 527 144.66 527 145 527C145 530.96 145 534.92 145 539C142.755 536.755 142.63 536.04 142.25 533C142.152 532.299 142.054 531.598 141.953 530.875C142 529 142 529 144 527Z" fill="#010101"/>
<path d="M631 508C634.795 509.491 636.61 511.757 639 515C636.69 514.67 634.38 514.34 632 514C631.67 512.02 631.34 510.04 631 508Z" fill="#161616"/>
<path d="M146 472C146.66 472 147.32 472 148 472C148.33 473.65 148.66 475.3 149 477C147.68 477.99 146.36 478.98 145 480C144.34 479.67 143.68 479.34 143 479C143.99 476.69 144.98 474.38 146 472Z" fill="#111111"/>
<path d="M628 363C628.293 369.055 628.293 369.055 628 371C626.515 371.99 626.515 371.99 625 373C625 370.03 625 367.06 625 364C627 363 627 363 628 363Z" fill="#141515"/>
<path d="M730 299C732.475 299.495 732.475 299.495 735 300C734.01 300.495 734.01 300.495 733 301C732.657 302.331 732.324 303.664 732 305C731.34 305.66 730.68 306.32 730 307C730 304.36 730 301.72 730 299Z" fill="#DFDFDE"/>
<path d="M586 234C588 237 588 237 589 240C587.35 241.65 585.7 243.3 584 245C584.66 241.37 585.32 237.74 586 234Z" fill="#131313"/>
<path d="M89 568C89 568.33 89 568.66 89 569C85.7 569 82.4 569 79 569C79 568.34 79 567.68 79 567C82.9367 565.688 85.1249 566.757 89 568Z" fill="#0A0B0B"/>
<path d="M746 565C742.175 567.391 738.403 567.56 734 568C737.691 563.756 740.692 563.673 746 565Z" fill="#222222"/>
<path d="M25 554C28.0831 555.199 31.0628 556.477 34 558C34 558.66 34 559.32 34 560C27.427 558.101 27.427 558.101 25 555C25 554.67 25 554.34 25 554Z" fill="#141414"/>
<path d="M211 546C213.475 546.495 213.475 546.495 216 547C215.01 547.33 214.02 547.66 213 548C213 549.65 213 551.3 213 553C213.66 553.33 214.32 553.66 215 554C213.68 553.67 212.36 553.34 211 553C211 550.69 211 548.38 211 546Z" fill="#F2F2F2"/>
<path d="M189 529C189.33 529 189.66 529 190 529C190 531.31 190 533.62 190 536C188.02 536 186.04 536 184 536C184.33 535.01 184.66 534.02 185 533C186.32 533 187.64 533 189 533C189 531.68 189 530.36 189 529Z" fill="#E7E8E9"/>
<path d="M52.9998 481C53.3298 481 53.6598 481 53.9998 481C54.1326 481.615 54.2654 482.23 54.4022 482.863C54.5788 483.672 54.7554 484.48 54.9373 485.312C55.1113 486.113 55.2854 486.914 55.4647 487.738C55.9987 490.145 55.9987 490.145 56.9998 493C55.0623 492.375 55.0623 492.375 52.9998 491C51.9728 487.366 51.7601 484.581 52.9998 481Z" fill="#121213"/>
<path d="M780 462C780.66 462 781.32 462 782 462C781.469 465.821 780.503 468.062 778 471C777 468 777 468 778.438 464.812C778.953 463.884 779.469 462.956 780 462Z" fill="#272727"/>
<path d="M67 426C67.33 426.66 67.66 427.32 68 428C64.375 433.875 64.375 433.875 61 435C62.5271 431.564 64.5993 428.881 67 426Z" fill="#050505"/>
<path d="M46 307C46.9873 309.666 47.0276 310.901 46.25 313.688C45 316 45 316 42 317C42 315.68 42 314.36 42 313C42.66 313 43.32 313 44 313C44.66 311.02 45.32 309.04 46 307Z" fill="#1E1E1F"/>
<path d="M145 289C145.33 289.66 145.66 290.32 146 291C144.02 293.97 142.04 296.94 140 300C139.67 299.34 139.34 298.68 139 298C139.707 296.09 139.707 296.09 140.812 293.938C141.17 293.225 141.527 292.512 141.895 291.777C143 290 143 290 145 289Z" fill="#151616"/>
<path d="M731 244C734 245 734 245 735.688 247.938C737 251 737 251 737 253C734 252 734 252 732.312 249.062C731 246 731 246 731 244Z" fill="#171717"/>
<path d="M124 112C124.99 112.33 125.98 112.66 127 113C124.36 114.98 121.72 116.96 119 119C119 118.01 119 117.02 119 116C121.312 113.75 121.312 113.75 124 112Z" fill="#131314"/>
<path d="M322 47C322 50.5891 321.336 51.1086 319 53.6875C318.443 54.3101 317.886 54.9327 317.312 55.5742C316.879 56.0447 316.446 56.5152 316 57C315.67 56.34 315.34 55.68 315 55C318.625 49.25 318.625 49.25 322 47Z" fill="#050505"/>
<path d="M323 286C326.112 287.498 329.053 289.199 332 291C331.01 291.33 330.02 291.66 329 292C325.812 290.188 325.812 290.188 323 288C323 287.34 323 286.68 323 286Z" fill="#131313"/>
<path d="M98 163C98.66 163 99.32 163 100 163C100.33 165.64 100.66 168.28 101 171C100.01 170.67 99.02 170.34 98 170C98 167.69 98 165.38 98 163Z" fill="#212223"/>
<path d="M598 153C599 156 599 156 597.562 159.188C596.789 160.58 596.789 160.58 596 162C594.68 161.67 593.36 161.34 592 161C592.433 160.608 592.866 160.216 593.312 159.812C595.264 157.717 596.59 155.484 598 153Z" fill="#1E1F1F"/>
<path d="M187 139C189.964 141.808 192.445 144.183 194 148C189.794 146.498 188.261 143.714 186 140C186.33 139.67 186.66 139.34 187 139Z" fill="#101211"/>
<path d="M462 24C466.248 24.472 468.2 26.9666 471 30C466.752 29.528 464.8 27.0334 462 24Z" fill="#131414"/>
<path d="M358 7.99999C354.142 10.153 351.449 11.3925 347 11C350.821 7.86098 353.161 6.38712 358 7.99999Z" fill="#1C1D1C"/>
<path d="M0.999946 513C1.32995 513 1.65995 513 1.99995 513C2.21651 514.145 2.21651 514.145 2.43745 515.312C2.96321 518.082 2.96321 518.082 3.99995 521C3.56245 523.688 3.56245 523.688 2.99995 526C2.66995 526 2.33995 526 1.99995 526C0.897659 521.591 0.9234 517.516 0.999946 513Z" fill="#373737"/>
<path d="M188 512C188.66 512 189.32 512 190 512C190.33 514.31 190.66 516.62 191 519C190.01 519.33 189.02 519.66 188 520C188 517.36 188 514.72 188 512Z" fill="#111212"/>
<path d="M3 503C3.66 503 4.32 503 5 503C5.125 508.75 5.125 508.75 4 511C3.34 511 2.68 511 2 511C2.33 508.36 2.66 505.72 3 503Z" fill="#1B1C1C"/>
<path d="M557 61C560.255 61.3488 561.019 62.0213 563.25 64.5625C563.827 65.3669 564.405 66.1712 565 67C561.745 66.6512 560.981 65.9787 558.75 63.4375C558.173 62.6331 557.595 61.8288 557 61Z" fill="#131313"/>
<path d="M84 573C86.64 573.33 89.28 573.66 92 574C90.68 574.99 89.36 575.98 88 577C86.68 576.34 85.36 575.68 84 575C84 574.34 84 573.68 84 573Z" fill="#757676"/>
<path d="M61 565C61.33 565.99 61.66 566.98 62 568C59.03 567.67 56.06 567.34 53 567C56.2279 564.848 57.284 564.799 61 565Z" fill="#232323"/>
<path d="M790 495C792.503 497.938 793.469 500.179 794 504C793.34 504 792.68 504 792 504C790.502 500.629 790 498.796 790 495Z" fill="#1A1B1B"/>
<path d="M668 343C669 347 669 347 667.562 349.75C666.789 350.864 666.789 350.864 666 352C665.34 351.67 664.68 351.34 664 351C665.32 348.36 666.64 345.72 668 343Z" fill="#050505"/>
<path d="M736 300C741.875 303.625 741.875 303.625 743 307C742.01 307.495 742.01 307.495 741 308C738.5 305.688 738.5 305.688 736 303C736 302.01 736 301.02 736 300Z" fill="#828282"/>
<path d="M732 293C732.553 295.076 733 296.844 733 299C732.01 299 731.02 299 730 299C729.67 297.68 729.34 296.36 729 295C729.99 294.34 730.98 293.68 732 293Z" fill="#484849"/>
<path d="M135 98C130.692 101.077 130.692 101.077 127.188 100.687C126.466 100.461 125.744 100.234 125 100C128.802 97.4655 130.684 96.6606 135 98Z" fill="#262627"/>
<path d="M480 39C482.667 40.3333 485.333 41.6667 488 43C486.02 43.33 484.04 43.66 482 44C482 43.34 482 42.68 482 42C481.34 42 480.68 42 480 42C480 41.01 480 40.02 480 39Z" fill="#1D1D1E"/>
<path d="M668 582C669.65 582.33 671.3 582.66 673 583C672.67 583.66 672.34 584.32 672 585C670.35 584.67 668.7 584.34 667 584C667.33 583.34 667.66 582.68 668 582Z" fill="#434344"/>
<path d="M21 468C21.66 469.32 22.32 470.64 23 472C21.68 471.01 20.36 470.02 19 469C19.66 468.67 20.32 468.34 21 468Z" fill="#6B6B6B"/>
<path d="M102 113C102.66 113.66 103.32 114.32 104 115C103.34 115.66 102.68 116.32 102 117C102 115.68 102 114.36 102 113Z" fill="#515352"/>
<path d="M138 583C139.65 583 141.3 583 143 583C141.02 583.99 141.02 583.99 139 585C138.67 584.34 138.34 583.68 138 583Z" fill="#393938"/>
<path d="M686 114C686.99 114.33 687.98 114.66 689 115C688.67 115.66 688.34 116.32 688 117C687.34 116.67 686.68 116.34 686 116C686 115.34 686 114.68 686 114Z" fill="#343536"/>
<path d="M58 288C58.66 288.33 59.32 288.66 60 289C58.515 289.99 58.515 289.99 57 291C57.33 290.01 57.66 289.02 58 288Z" fill="#7C7F7E"/>
<path d="M58 281C58.99 281.33 59.98 281.66 61 282C60.01 282.33 59.02 282.66 58 283C58 282.34 58 281.68 58 281Z" fill="#828485"/>
<path d="M720 186C720.33 186.99 720.66 187.98 721 189C720.01 189.495 720.01 189.495 719 190C719.33 188.68 719.66 187.36 720 186Z" fill="#404141"/>
<path d="M715 129C715.66 129 716.32 129 717 129C717 129.66 717 130.32 717 131C716.01 130.67 715.02 130.34 714 130C714.33 129.67 714.66 129.34 715 129Z" fill="#393939"/>
<path d="M650 97C651.32 97.33 652.64 97.66 654 98C653.01 98.495 653.01 98.495 652 99C651.34 98.34 650.68 97.68 650 97Z" fill="#3B3C3C"/>
<path d="M290 41C291.65 41 293.3 41 295 41C295 41.33 295 41.66 295 42C293.35 42 291.7 42 290 42C290 41.67 290 41.34 290 41Z" fill="#383938"/>
<path d="M129 582C129.99 582.33 130.98 582.66 132 583C131.01 583 130.02 583 129 583C129 582.67 129 582.34 129 582Z" fill="#434241"/>
<path d="M18 464C18.66 464 19.32 464 20 464C19.67 464.99 19.34 465.98 19 467C18.67 466.01 18.34 465.02 18 464Z" fill="#5F5E60"/>
<path d="M43 376C43.33 376.99 43.66 377.98 44 379C43.34 378.67 42.68 378.34 42 378C42.33 377.34 42.66 376.68 43 376Z" fill="#5D5C5E"/>
<path d="M35 347C36 351 36 351 36 351L35 347Z" fill="#424242"/>
<path d="M767 336C767.99 336.495 767.99 336.495 769 337C768.34 337.66 767.68 338.32 767 339C767 338.01 767 337.02 767 336Z" fill="#49494A"/>
<path d="M590 144C591 148 591 148 591 148L590 144Z" fill="#343536"/>
<path d="M120 98C121.485 98.99 121.485 98.99 123 100C122.01 100 121.02 100 120 100C120 99.34 120 98.68 120 98Z" fill="#4F5051"/>
<path d="M645 584C648 585 648 585 648 585L645 584Z" fill="#343232"/>
<path d="M120 583C120.33 583.66 120.66 584.32 121 585C120.34 584.67 119.68 584.34 119 584C119.33 583.67 119.66 583.34 120 583Z" fill="#4C4C4C"/>
<path d="M727 570C730 571 730 571 730 571L727 570Z" fill="#666667"/>
<path d="M12 547C12.66 547.66 13.32 548.32 14 549C13.34 549 12.68 549 12 549C12 548.34 12 547.68 12 547Z" fill="#3A3A39"/>
<path d="M18 419C18.99 419.495 18.99 419.495 20 420C19.01 420.495 19.01 420.495 18 421C18 420.34 18 419.68 18 419Z" fill="#555455"/>
<path d="M19 417C22 418 22 418 22 418L19 417Z" fill="#565556"/>
<path d="M43 380C43.99 380.495 43.99 380.495 45 381C44.01 381.495 44.01 381.495 43 382C43 381.34 43 380.68 43 380Z" fill="#646666"/>
<path d="M598 149C598.33 149.66 598.66 150.32 599 151C598.34 150.67 597.68 150.34 597 150C597.33 149.67 597.66 149.34 598 149Z" fill="#353534"/>
<path d="M262 44C265 45 265 45 265 45L262 44Z" fill="#404040"/>
<path d="M445 10C445.66 10.66 446.32 11.32 447 12C446.34 12 445.68 12 445 12C445 11.34 445 10.68 445 10Z" fill="#3D3F3E"/>
<path d="M362 3C365 4 365 4 365 4L362 3Z" fill="#414242"/>
<path d="M716 596C718 597 718 597 718 597L716 596Z" fill="#5D5D5E"/>
<path d="M623 588C625 589 625 589 625 589L623 588Z" fill="#2C2C2B"/>
<path d="M150 584C152 585 152 585 152 585L150 584Z" fill="#343333"/>
<path d="M745 567C747 568 747 568 747 568L745 567Z" fill="#474544"/>
<path d="M747 566C749 567 749 567 749 567L747 566Z" fill="#444142"/>
<path d="M24 557C26 558 26 558 26 558L24 557Z" fill="#383838"/>
<path d="M21 555C23 556 23 556 23 556L21 555Z" fill="#38393B"/>
<path d="M20 421C22 422 22 422 22 422L20 421Z" fill="#525455"/>
<path d="M33 401C35 402 35 402 35 402L33 401Z" fill="#737275"/>
<path d="M715 218C717 219 717 219 717 219L715 218Z" fill="#7C7C7C"/>
<path d="M716 212C718 213 718 213 718 213L716 212Z" fill="#6B6B6A"/>
<path d="M716 196C718 197 718 197 718 197L716 196Z" fill="#4B4B4A"/>
<path d="M721 184C723 185 723 185 723 185L721 184Z" fill="#424242"/>
<path d="M99 177C101 178 101 178 101 178L99 177Z" fill="#616363"/>
<path d="M593 148C595 149 595 149 595 149L593 148Z" fill="#343434"/>
<path d="M672 107C674 108 674 108 674 108L672 107Z" fill="#343636"/>
<path d="M670 106C672 107 672 107 672 107L670 106Z" fill="#373838"/>
<path d="M668 105C670 106 670 106 670 106L668 105Z" fill="#373839"/>
<path d="M116 101C118 102 118 102 118 102L116 101Z" fill="#515151"/>
<path d="M626 100C628 101 628 101 628 101L626 100Z" fill="#3C3A3A"/>
<path d="M174 100C176 101 176 101 176 101L174 100Z" fill="#484848"/>
<path d="M656 99C658 100 658 100 658 100L656 99Z" fill="#373838"/>
<path d="M631 99C633 100 633 100 633 100L631 99Z" fill="#3B3C3B"/>
<path d="M172 99C174 100 174 100 174 100L172 99Z" fill="#4A494A"/>
<path d="M115 99C117 100 117 100 117 100L115 99Z" fill="#515151"/>
<path d="M123 98C125 99 125 99 125 99L123 98Z" fill="#505153"/>
<path d="M115 97C117 98 117 98 117 98L115 97Z" fill="#525152"/>
<path d="M716 92C718 93 718 93 718 93L716 92Z" fill="#535453"/>
<path d="M139 92C141 93 141 93 141 93L139 92Z" fill="#565756"/>
<path d="M211 86C213 87 213 87 213 87L211 86Z" fill="#434342"/>
<path d="M716 76C718 77 718 77 718 77L716 76Z" fill="#5A5959"/>
<path d="M551 54C553 55 553 55 553 55L551 54Z" fill="#3F3F3E"/>
<path d="M716 52C718 53 718 53 718 53L716 52Z" fill="#5C5C5D"/>
<path d="M250 49C252 50 252 50 252 50L250 49Z" fill="#3E4040"/>
<path d="M242 49C244 50 244 50 244 50L242 49Z" fill="#414240"/>
<path d="M716 44C718 45 718 45 718 45L716 44Z" fill="#5D5D5E"/>
<path d="M267 43C269 44 269 44 269 44L267 43Z" fill="#3E3F40"/>
<path d="M270 42C272 43 272 43 272 43L270 42Z" fill="#3D3F3F"/>
<path d="M262 42C264 43 264 43 264 43L262 42Z" fill="#434141"/>
<path d="M296 41C298 42 298 42 298 42L296 41Z" fill="#3B3B3B"/>
<path d="M282 41C284 42 284 42 284 42L282 41Z" fill="#3A3A3A"/>
<path d="M716 36C718 37 718 37 718 37L716 36Z" fill="#5E5D5E"/>
<path d="M716 20C718 21 718 21 718 21L716 20Z" fill="#5E5F5F"/>
<path d="M716 12C718 13 718 13 718 13L716 12Z" fill="#5E5F5F"/>
<path d="M410 1C412 2 412 2 412 2L410 1Z" fill="#3D3D3D"/>
<path d="M371 1C373 2 373 2 373 2L371 1Z" fill="#3E3F40"/>
</g>
<defs>
<clipPath id="clip0_3691_89">
<rect width="797" height="597" fill="white"/>
</clipPath>
</defs>
</svg>
